<svg xmlns="http://www.w3.org/2000/svg" xmlns:xlink="http://www.w3.org/1999/xlink" x="0" y="0" width="862" height="448.9666748046875" style="
        width:862px;
        height:448.9666748046875px;
        background: transparent;
        fill: none;
">
        
        
        <svg xmlns="http://www.w3.org/2000/svg" class="role-diagram-draw-area"><g class="shapes-region" style="stroke: black; fill: none;"><g class="composite-shape"><path class="real" d=" M302,70 L410,70 L410,241 L302,241 Z" style="stroke-width: 1px; stroke: rgb(0, 0, 0); stroke-opacity: 1; fill: none; fill-opacity: 1;"/></g><g class="composite-shape"><path class="real" d=" M478,253 L507,253 L507,319 L478,319 Z" style="stroke-width: 1px; stroke: rgb(0, 0, 0); stroke-opacity: 1; fill: none; fill-opacity: 1;"/></g><g class="composite-shape"><path class="real" d=" M417,327 L529,327 L529,393 L417,393 Z" style="stroke-width: 1px; stroke: rgb(0, 0, 0); stroke-opacity: 1; fill: none; fill-opacity: 1;"/></g><g class="composite-shape"><path class="real" d=" M274,75 Q267,75 267,82 L267,147.5 Q267,157.5 260,157.5 Q267,157.5 267,167.5 M267,164.5 L267,233 Q267,240 274,240" style="stroke-width: 2px; stroke: rgb(245, 166, 35); stroke-opacity: 1; fill: rgb(245, 166, 35); fill-opacity: 1;"/></g><g class="composite-shape"><path class="real" d=" M273,339 Q266,339 266,346 L266,354 Q266,364 259,364 Q266,364 266,374 M266,371 L266,382 Q266,389 273,389" style="stroke-width: 2px; stroke: rgb(245, 166, 35); stroke-opacity: 1; fill: rgb(245, 166, 35); fill-opacity: 1;"/></g><g class="composite-shape"><path class="real" d=" M275,256 Q268,256.11 268.12,263.11 L268.34,276.62 Q268.5,286.61 261.5,286.73 Q268.5,286.61 268.67,296.61 M268.62,293.61 L268.89,310.12 Q269,317.11 276,317" style="stroke-width: 2px; stroke: rgb(245, 166, 35); stroke-opacity: 1; fill: rgb(245, 166, 35); fill-opacity: 1;"/></g><g class="composite-shape"><path class="real" d=" M420,70 L450,70 L450,241 L420,241 Z" style="stroke-width: 1px; stroke: rgb(0, 0, 0); stroke-opacity: 1; fill: none; fill-opacity: 1;"/></g><g class="composite-shape"><path class="real" d=" M359,252 L469,252 L469,318 L359,318 Z" style="stroke-width: 1px; stroke: rgb(0, 0, 0); stroke-opacity: 1; fill: none; fill-opacity: 1;"/></g><g class="composite-shape"><path class="real" d=" M537,327 L563,327 L563,393 L537,393 Z" style="stroke-width: 1px; stroke: rgb(0, 0, 0); stroke-opacity: 1; fill: none; fill-opacity: 1;"/></g><g/></g><g/><g/><g/></svg>
        <svg xmlns="http://www.w3.org/2000/svg" xmlns:xlink="http://www.w3.org/1999/xlink" width="860" height="446.9666748046875" style="width:860px;height:446.9666748046875px;font-family:LatinModern-Math, LatinModern, Asana-Math, Asana;background:transparent;"><g><g><g><g transform="matrix(1,0,0,1,141,167.63333740234376)"><path transform="matrix(0.020399999999999998,0,0,-0.020399999999999998,0,0)" d="M685 452L666 677L55 677L36 452L61 452C75 613 90 646 241 646C259 646 285 646 295 644C316 640 316 629 316 606L316 79C316 45 316 31 211 31L171 31L171 0C212 3 314 3 360 3C406 3 509 3 550 0L550 31L510 31C405 31 405 45 405 79L405 606C405 626 405 640 423 644C434 646 461 646 480 646C631 646 646 613 660 452ZM1086 381C1086 413 1055 442 1012 442C939 442 903 375 889 332L889 442L750 431L750 400C820 400 828 393 828 344L828 76C828 31 817 31 750 31L750 0L864 3C904 3 951 3 991 0L991 31L970 31C896 31 894 42 894 78L894 232C894 331 936 420 1012 420C1019 420 1021 420 1023 419C1020 418 1000 406 1000 380C1000 352 1021 337 1043 337C1061 337 1086 349 1086 381ZM1597 89L1597 145L1572 145L1572 89C1572 31 1547 25 1536 25C1503 25 1499 70 1499 75L1499 275C1499 317 1499 356 1463 393C1424 432 1374 448 1326 448C1244 448 1175 401 1175 335C1175 305 1195 288 1221 288C1249 288 1267 308 1267 334C1267 346 1262 379 1216 380C1243 415 1292 426 1324 426C1373 426 1430 387 1430 298L1430 261C1379 258 1309 255 1246 225C1171 191 1146 139 1146 95C1146 14 1243 -11 1306 -11C1372 -11 1418 29 1437 76C1441 36 1468 -6 1515 -6C1536 -6 1597 8 1597 89ZM1430 140C1430 45 1358 11 1313 11C1264 11 1223 46 1223 96C1223 151 1265 234 1430 240ZM1861 0L1861 31C1795 31 1791 36 1791 75L1791 442L1651 431L1651 400C1716 400 1725 394 1725 345L1725 76C1725 31 1714 31 1647 31L1647 0L1757 3C1792 3 1827 1 1861 0ZM1806 604C1806 631 1783 657 1753 657C1719 657 1699 629 1699 604C1699 577 1722 551 1752 551C1786 551 1806 579 1806 604ZM2427 0L2427 31C2375 31 2350 31 2349 61L2349 252C2349 338 2349 369 2318 405C2304 422 2271 442 2213 442C2140 442 2093 399 2065 337L2065 442L1924 431L1924 400C1994 400 2002 393 2002 344L2002 76C2002 31 1991 31 1924 31L1924 0L2037 3L2149 0L2149 31C2082 31 2071 31 2071 76L2071 260C2071 364 2142 420 2206 420C2269 420 2280 366 2280 309L2280 76C2280 31 2269 31 2202 31L2202 0L2315 3ZM3237 180C3237 271 3167 332 3100 355C3189 384 3223 450 3223 503C3223 597 3138 678 3030 678C2918 678 2836 595 2836 503C2836 450 2870 384 2959 355C2887 330 2822 267 2822 180C2822 71 2914 -22 3029 -22C3148 -22 3237 74 3237 180ZM3153 503C3153 431 3102 385 3030 385C2953 385 2906 434 2906 503C2906 572 2955 620 3029 620C3108 620 3153 568 3153 503ZM3156 181C3156 84 3094 39 3030 39C2961 39 2903 87 2903 181C2903 286 2975 324 3029 324C3087 324 3156 284 3156 181ZM3737 326C3737 405 3733 498 3691 579C3650 654 3581 678 3530 678C3471 678 3401 651 3360 562C3327 489 3322 406 3322 326C3322 247 3326 174 3356 101C3396 5 3472 -22 3529 -22C3602 -22 3665 19 3697 88C3727 153 3737 219 3737 326ZM3659 338C3659 272 3659 209 3641 146C3615 55 3562 39 3530 39C3478 39 3437 77 3417 149C3401 206 3400 260 3400 338C3400 401 3400 461 3417 516C3423 535 3448 617 3529 617C3607 617 3633 541 3640 523C3659 467 3659 400 3659 338ZM4473 730C4473 741 4464 750 4453 750C4443 750 4438 743 4432 736C4382 668 4315 641 4242 641C4172 641 4110 666 4055 718C4036 735 4015 750 3983 750C3907 750 3836 666 3836 549C3836 428 3908 347 3983 347C4056 347 4113 436 4113 548C4113 562 4113 609 4092 661C4157 624 4207 619 4243 619C4319 619 4370 650 4376 654L4377 653L3928 -16C3919 -29 3919 -36 3919 -36C3919 -47 3929 -56 3939 -56C3949 -56 3951 -52 3959 -41L4465 712C4471 721 4473 724 4473 730ZM4556 145C4556 260 4497 347 4426 347C4350 347 4279 263 4279 146C4279 25 4351 -56 4426 -56C4499 -56 4556 33 4556 145ZM4088 549C4088 441 4036 369 3984 369C3964 369 3898 382 3898 548C3898 715 3963 728 3984 728C4037 728 4088 654 4088 549ZM4531 146C4531 38 4479 -34 4427 -34C4407 -34 4341 -21 4341 145C4341 312 4406 325 4427 325C4480 325 4531 251 4531 146Z" stroke="rgb(5,61,87)" stroke-opacity="1" stroke-width="24" fill="rgb(5,61,87)" fill-opacity="1"></path></g></g></g></g><g><g><g><g transform="matrix(1,0,0,1,151,370.6333374023437)"><path transform="matrix(0.020399999999999998,0,0,-0.020399999999999998,0,0)" d="M685 452L666 677L55 677L36 452L61 452C75 613 90 646 241 646C259 646 285 646 295 644C316 640 316 629 316 606L316 79C316 45 316 31 211 31L171 31L171 0C212 3 314 3 360 3C406 3 509 3 550 0L550 31L510 31C405 31 405 45 405 79L405 606C405 626 405 640 423 644C434 646 461 646 480 646C631 646 646 613 660 452ZM1137 119C1137 129 1129 131 1124 131C1115 131 1113 125 1111 117C1076 14 986 14 976 14C926 14 886 44 863 81C833 129 833 195 833 231L1112 231C1134 231 1137 231 1137 252C1137 351 1083 448 958 448C842 448 750 345 750 220C750 86 855 -11 970 -11C1092 -11 1137 100 1137 119ZM1071 252L834 252C840 401 924 426 958 426C1061 426 1071 291 1071 252ZM1526 128C1526 181 1496 211 1484 223C1451 255 1412 263 1370 271C1314 282 1247 295 1247 353C1247 388 1273 429 1359 429C1469 429 1474 339 1476 308C1477 299 1488 299 1488 299C1501 299 1501 304 1501 323L1501 424C1501 441 1501 448 1490 448C1485 448 1483 448 1470 436C1467 432 1457 423 1453 420C1415 448 1374 448 1359 448C1237 448 1199 381 1199 325C1199 290 1215 262 1242 240C1274 214 1302 208 1374 194C1396 190 1478 174 1478 102C1478 51 1443 11 1365 11C1281 11 1245 68 1226 153C1223 166 1222 170 1212 170C1199 170 1199 163 1199 145L1199 13C1199 -4 1199 -11 1210 -11C1215 -11 1216 -10 1235 9C1237 11 1237 13 1255 32C1299 -10 1344 -11 1365 -11C1480 -11 1526 56 1526 128ZM1892 124L1892 181L1867 181L1867 126C1867 52 1837 14 1800 14C1733 14 1733 105 1733 122L1733 400L1876 400L1876 431L1733 431L1733 615L1708 615C1707 533 1677 426 1579 422L1579 400L1664 400L1664 124C1664 1 1757 -11 1793 -11C1864 -11 1892 60 1892 124ZM2705 0L2705 58L2580 58L2580 678L2560 678C2501 617 2418 614 2370 612L2370 554C2403 555 2451 557 2501 578L2501 58L2376 58L2376 0ZM3238 326C3238 405 3234 498 3192 579C3151 654 3082 678 3031 678C2972 678 2902 651 2861 562C2828 489 2823 406 2823 326C2823 247 2827 174 2857 101C2897 5 2973 -22 3030 -22C3103 -22 3166 19 3198 88C3228 153 3238 219 3238 326ZM3160 338C3160 272 3160 209 3142 146C3116 55 3063 39 3031 39C2979 39 2938 77 2918 149C2902 206 2901 260 2901 338C2901 401 2901 461 2918 516C2924 535 2949 617 3030 617C3108 617 3134 541 3141 523C3160 467 3160 400 3160 338ZM3974 730C3974 741 3965 750 3954 750C3944 750 3939 743 3933 736C3883 668 3816 641 3743 641C3673 641 3611 666 3556 718C3537 735 3516 750 3484 750C3408 750 3337 666 3337 549C3337 428 3409 347 3484 347C3557 347 3614 436 3614 548C3614 562 3614 609 3593 661C3658 624 3708 619 3744 619C3820 619 3871 650 3877 654L3878 653L3429 -16C3420 -29 3420 -36 3420 -36C3420 -47 3430 -56 3440 -56C3450 -56 3452 -52 3460 -41L3966 712C3972 721 3974 724 3974 730ZM4057 145C4057 260 3998 347 3927 347C3851 347 3780 263 3780 146C3780 25 3852 -56 3927 -56C4000 -56 4057 33 4057 145ZM3589 549C3589 441 3537 369 3485 369C3465 369 3399 382 3399 548C3399 715 3464 728 3485 728C3538 728 3589 654 3589 549ZM4032 146C4032 38 3980 -34 3928 -34C3908 -34 3842 -21 3842 145C3842 312 3907 325 3928 325C3981 325 4032 251 4032 146Z" stroke="rgb(5,61,87)" stroke-opacity="1" stroke-width="24" fill="rgb(5,61,87)" fill-opacity="1"></path></g></g></g></g><g><g><g><g transform="matrix(1,0,0,1,104,294.6333374023437)"><path transform="matrix(0.020399999999999998,0,0,-0.020399999999999998,0,0)" d="M730 652L730 683C699 681 659 680 633 680L519 683L519 652C571 651 592 625 592 602C592 594 589 588 587 582L404 100L213 605C207 619 207 623 207 623C207 652 264 652 289 652L289 683C253 680 184 680 146 680L19 683L19 652C84 652 103 652 117 614L349 0C356 -19 361 -22 374 -22C391 -22 393 -17 398 -3L621 585C635 622 662 651 730 652ZM1233 89L1233 145L1208 145L1208 89C1208 31 1183 25 1172 25C1139 25 1135 70 1135 75L1135 275C1135 317 1135 356 1099 393C1060 432 1010 448 962 448C880 448 811 401 811 335C811 305 831 288 857 288C885 288 903 308 903 334C903 346 898 379 852 380C879 415 928 426 960 426C1009 426 1066 387 1066 298L1066 261C1015 258 945 255 882 225C807 191 782 139 782 95C782 14 879 -11 942 -11C1008 -11 1054 29 1073 76C1077 36 1104 -6 1151 -6C1172 -6 1233 8 1233 89ZM1066 140C1066 45 994 11 949 11C900 11 859 46 859 96C859 151 901 234 1066 240ZM1505 0L1505 31C1438 31 1427 31 1427 76L1427 694L1283 683L1283 652C1353 652 1361 645 1361 596L1361 76C1361 31 1350 31 1283 31L1283 0L1394 3ZM1775 0L1775 31C1709 31 1705 36 1705 75L1705 442L1565 431L1565 400C1630 400 1639 394 1639 345L1639 76C1639 31 1628 31 1561 31L1561 0L1671 3C1706 3 1741 1 1775 0ZM1720 604C1720 631 1697 657 1667 657C1633 657 1613 629 1613 604C1613 577 1636 551 1666 551C1700 551 1720 579 1720 604ZM2333 0L2333 31C2263 31 2255 38 2255 87L2255 694L2111 683L2111 652C2181 652 2189 645 2189 596L2189 380C2160 416 2117 442 2063 442C1945 442 1840 344 1840 215C1840 88 1938 -11 2052 -11C2116 -11 2161 23 2186 55L2186 -11ZM2186 118C2186 100 2186 98 2175 81C2145 33 2100 11 2057 11C2012 11 1976 37 1952 75C1926 116 1923 173 1923 214C1923 251 1925 311 1954 356C1975 387 2013 420 2067 420C2102 420 2144 405 2175 360C2186 343 2186 341 2186 323ZM2845 89L2845 145L2820 145L2820 89C2820 31 2795 25 2784 25C2751 25 2747 70 2747 75L2747 275C2747 317 2747 356 2711 393C2672 432 2622 448 2574 448C2492 448 2423 401 2423 335C2423 305 2443 288 2469 288C2497 288 2515 308 2515 334C2515 346 2510 379 2464 380C2491 415 2540 426 2572 426C2621 426 2678 387 2678 298L2678 261C2627 258 2557 255 2494 225C2419 191 2394 139 2394 95C2394 14 2491 -11 2554 -11C2620 -11 2666 29 2685 76C2689 36 2716 -6 2763 -6C2784 -6 2845 8 2845 89ZM2678 140C2678 45 2606 11 2561 11C2512 11 2471 46 2471 96C2471 151 2513 234 2678 240ZM3194 124L3194 181L3169 181L3169 126C3169 52 3139 14 3102 14C3035 14 3035 105 3035 122L3035 400L3178 400L3178 431L3035 431L3035 615L3010 615C3009 533 2979 426 2881 422L2881 400L2966 400L2966 124C2966 1 3059 -11 3095 -11C3166 -11 3194 60 3194 124ZM3498 0L3498 31C3432 31 3428 36 3428 75L3428 442L3288 431L3288 400C3353 400 3362 394 3362 345L3362 76C3362 31 3351 31 3284 31L3284 0L3394 3C3429 3 3464 1 3498 0ZM3443 604C3443 631 3420 657 3390 657C3356 657 3336 629 3336 604C3336 577 3359 551 3389 551C3423 551 3443 579 3443 604ZM4000 214C4000 342 3900 448 3779 448C3654 448 3557 339 3557 214C3557 85 3661 -11 3778 -11C3899 -11 4000 87 4000 214ZM3917 222C3917 186 3917 132 3895 88C3873 43 3829 14 3779 14C3736 14 3692 35 3665 81C3640 125 3640 186 3640 222C3640 261 3640 315 3664 359C3691 405 3738 426 3778 426C3822 426 3865 404 3891 361C3917 318 3917 260 3917 222ZM4564 0L4564 31C4512 31 4487 31 4486 61L4486 252C4486 338 4486 369 4455 405C4441 422 4408 442 4350 442C4277 442 4230 399 4202 337L4202 442L4061 431L4061 400C4131 400 4139 393 4139 344L4139 76C4139 31 4128 31 4061 31L4061 0L4174 3L4286 0L4286 31C4219 31 4208 31 4208 76L4208 260C4208 364 4279 420 4343 420C4406 420 4417 366 4417 309L4417 76C4417 31 4406 31 4339 31L4339 0L4452 3ZM5341 0L5341 58L5216 58L5216 678L5196 678C5137 617 5054 614 5006 612L5006 554C5039 555 5087 557 5137 578L5137 58L5012 58L5012 0ZM5874 326C5874 405 5870 498 5828 579C5787 654 5718 678 5667 678C5608 678 5538 651 5497 562C5464 489 5459 406 5459 326C5459 247 5463 174 5493 101C5533 5 5609 -22 5666 -22C5739 -22 5802 19 5834 88C5864 153 5874 219 5874 326ZM5796 338C5796 272 5796 209 5778 146C5752 55 5699 39 5667 39C5615 39 5574 77 5554 149C5538 206 5537 260 5537 338C5537 401 5537 461 5554 516C5560 535 5585 617 5666 617C5744 617 5770 541 5777 523C5796 467 5796 400 5796 338ZM6610 730C6610 741 6601 750 6590 750C6580 750 6575 743 6569 736C6519 668 6452 641 6379 641C6309 641 6247 666 6192 718C6173 735 6152 750 6120 750C6044 750 5973 666 5973 549C5973 428 6045 347 6120 347C6193 347 6250 436 6250 548C6250 562 6250 609 6229 661C6294 624 6344 619 6380 619C6456 619 6507 650 6513 654L6514 653L6065 -16C6056 -29 6056 -36 6056 -36C6056 -47 6066 -56 6076 -56C6086 -56 6088 -52 6096 -41L6602 712C6608 721 6610 724 6610 730ZM6693 145C6693 260 6634 347 6563 347C6487 347 6416 263 6416 146C6416 25 6488 -56 6563 -56C6636 -56 6693 33 6693 145ZM6225 549C6225 441 6173 369 6121 369C6101 369 6035 382 6035 548C6035 715 6100 728 6121 728C6174 728 6225 654 6225 549ZM6668 146C6668 38 6616 -34 6564 -34C6544 -34 6478 -21 6478 145C6478 312 6543 325 6564 325C6617 325 6668 251 6668 146Z" stroke="rgb(5,61,87)" stroke-opacity="1" stroke-width="24" fill="rgb(5,61,87)" fill-opacity="1"></path></g></g></g></g></svg>
</svg>
