<svg xmlns="http://www.w3.org/2000/svg" xmlns:xlink="http://www.w3.org/1999/xlink" x="0" y="0" width="862" height="397" style="
        width:862px;
        height:397px;
        background: transparent;
        fill: none;
">
        
        
        <svg xmlns="http://www.w3.org/2000/svg" class="role-diagram-draw-area"><g class="shapes-region" style="stroke: black; fill: none;"><g class="composite-shape axis2d" style="stroke-width: 2; stroke: rgb(0, 0, 0);"><path class="real" d=" M116.05,325.44 L437,325.44 M148.15,131.44 L148.15,347"/><path d=" M430,320.44 L437,325.44 L430,330.44"/><path d=" M143.15,138.44 L148.15,131.44 L153.15,138.44"/></g><g class="composite-shape"><path class="real" d=" M123.27,140.76 C177.39,384.18 233.41,384.64 291.34,142.13" style="stroke-width: 3; stroke: rgb(74, 144, 226); stroke-opacity: 1; fill: none; fill-opacity: 1;"/></g><g class="composite-shape"><path class="real" d=" M202.09,323.88 C201.97,321.74 203.57,319.9 205.66,319.78 C207.76,319.66 209.55,321.3 209.66,323.45 C209.78,325.59 208.18,327.43 206.09,327.55 C203.99,327.67 202.2,326.03 202.09,323.88 Z" style="stroke-width: 1; stroke: rgb(245, 166, 35); stroke-opacity: 1; fill: rgb(245, 166, 35); fill-opacity: 1;"/></g><g class="composite-shape"><path class="real" d=" M282.33,136.59 C290.02,133.02 295.25,128.72 298.02,123.67 C297.7,129.46 299.82,135.98 304.39,143.24" style="stroke-width: 1; stroke: rgb(0, 0, 0); fill: none; fill-opacity: 1;"/></g><g class="composite-shape"><path class="real" d=" M110.15,141.07 C115.48,134.37 118.3,128.13 118.6,122.35 C120.81,127.68 125.55,132.55 132.8,136.97" style="stroke-width: 1; stroke: rgb(0, 0, 0); fill: none; fill-opacity: 1;"/></g><g/></g><g/><g/><g/></svg>
        <svg xmlns="http://www.w3.org/2000/svg" xmlns:xlink="http://www.w3.org/1999/xlink" width="860" height="395" style="width:860px;height:395px;font-family:Asana-Math, Asana;background:transparent;"><g><g><g><g transform="matrix(1,0,0,1,475.1875,204.526875)"><path transform="matrix(0.024480000000000002,0,0,-0.024480000000000002,0,0)" d="M349 664L352 692L238 689C222 689 204 689 161 690L97 692L94 664L141 662C165 661 176 653 176 635L81 55C77 37 65 30 21 23L16 -3L57 -2C88 -1 150 0 170 0C170 0 467 -1 467 -1C467 -1 500 0 500 0C499 25 510 103 523 165L492 165L475 103C466 71 457 54 448 49C435 44 371 39 304 39C255 39 228 40 162 46C165 64 256 605 256 613C263 651 270 658 307 661Z" stroke="rgb(0,0,0)" stroke-opacity="1" stroke-width="8" fill="rgb(0,0,0)" fill-opacity="1"></path></g></g><g><g transform="matrix(1,0,0,1,488.78125,204.526875)"><path transform="matrix(0.024480000000000002,0,0,-0.024480000000000002,0,0)" d="M146 266C146 526 243 632 301 700L282 726C225 675 60 542 60 266C60 159 85 58 133 -32C168 -99 200 -138 282 -215L301 -194C255 -137 146 -15 146 266Z" stroke="rgb(0,0,0)" stroke-opacity="1" stroke-width="8" fill="rgb(0,0,0)" fill-opacity="1"></path></g></g><g><g><g><g><g transform="matrix(1,0,0,1,496.90625,204.526875)"><path transform="matrix(0.024480000000000002,0,0,-0.024480000000000002,0,0)" d="M-7 -180C-8 -187 -8 -193 -8 -198C-8 -241 29 -276 74 -276C180 -276 290 -152 349 33L490 473L479 482C450 471 427 465 405 463L370 331C358 284 323 211 290 162C255 111 206 67 184 67C172 67 163 90 164 115L180 322C182 353 184 391 184 419C184 464 177 482 160 482C147 482 133 475 85 442L3 386L14 368L64 398C69 401 80 410 89 410C103 410 111 391 111 358C111 357 111 351 110 343L93 100L92 60C92 18 110 -11 135 -11C172 -11 256 74 331 187L282 16C231 -161 181 -234 111 -234C76 -234 49 -207 49 -172C49 -167 50 -159 51 -150L41 -146Z" stroke="rgb(0,0,0)" stroke-opacity="1" stroke-width="8" fill="rgb(0,0,0)" fill-opacity="1"></path></g></g></g></g><svg x="496.90625" overflow="visible" y="178.046875" height="12" width="12.21875"><polyline points="0.00,10.64 6.11,6.57 12.22,10.64" style="fill:none;fill-opacity:1;stroke-width:1px;stroke:rgb(0,0,0);stroke-opacity:1;"></polyline></svg></g><g><g transform="matrix(1,0,0,1,509.125,204.526875)"><path transform="matrix(0.024480000000000002,0,0,-0.024480000000000002,0,0)" d="M204 123C177 114 159 108 106 93C99 17 74 -48 16 -144L30 -155L71 -136C152 -31 190 32 218 109Z" stroke="rgb(0,0,0)" stroke-opacity="1" stroke-width="8" fill="rgb(0,0,0)" fill-opacity="1"></path></g></g><g><g transform="matrix(1,0,0,1,520.109375,204.526875)"><path transform="matrix(0.024480000000000002,0,0,-0.024480000000000002,0,0)" d="M-7 -180C-8 -187 -8 -193 -8 -198C-8 -241 29 -276 74 -276C180 -276 290 -152 349 33L490 473L479 482C450 471 427 465 405 463L370 331C358 284 323 211 290 162C255 111 206 67 184 67C172 67 163 90 164 115L180 322C182 353 184 391 184 419C184 464 177 482 160 482C147 482 133 475 85 442L3 386L14 368L64 398C69 401 80 410 89 410C103 410 111 391 111 358C111 357 111 351 110 343L93 100L92 60C92 18 110 -11 135 -11C172 -11 256 74 331 187L282 16C231 -161 181 -234 111 -234C76 -234 49 -207 49 -172C49 -167 50 -159 51 -150L41 -146Z" stroke="rgb(0,0,0)" stroke-opacity="1" stroke-width="8" fill="rgb(0,0,0)" fill-opacity="1"></path></g></g><g><g transform="matrix(1,0,0,1,532.328125,204.526875)"><path transform="matrix(0.024480000000000002,0,0,-0.024480000000000002,0,0)" d="M51 726L32 700C87 636 187 526 187 266C187 -10 83 -131 32 -194L51 -215C104 -165 273 -23 273 265C273 542 108 675 51 726Z" stroke="rgb(0,0,0)" stroke-opacity="1" stroke-width="8" fill="rgb(0,0,0)" fill-opacity="1"></path></g></g><g><g transform="matrix(1,0,0,1,540.453125,204.526875)"><path transform="matrix(0.024480000000000002,0,0,-0.024480000000000002,0,0)" d="" stroke="rgb(0,0,0)" stroke-opacity="1" stroke-width="8" fill="rgb(0,0,0)" fill-opacity="1"></path></g></g><g><g transform="matrix(1,0,0,1,553.890625,204.526875)"><path transform="matrix(0.024480000000000002,0,0,-0.024480000000000002,0,0)" d="M604 347L604 406L65 406L65 347ZM604 134L604 193L65 193L65 134Z" stroke="rgb(0,0,0)" stroke-opacity="1" stroke-width="8" fill="rgb(0,0,0)" fill-opacity="1"></path></g></g><g><g transform="matrix(1,0,0,1,577.59375,204.526875)"><path transform="matrix(0.024480000000000002,0,0,-0.024480000000000002,0,0)" d="" stroke="rgb(0,0,0)" stroke-opacity="1" stroke-width="8" fill="rgb(0,0,0)" fill-opacity="1"></path></g></g><g><g><g><g><g transform="matrix(1,0,0,1,586.125,187.526875)"><path transform="matrix(0.024480000000000002,0,0,-0.024480000000000002,0,0)" d="M418 -3L418 27L366 30C311 33 301 44 301 96L301 700L60 598L67 548L217 614L217 96C217 44 206 33 152 30L96 27L96 -3C250 0 250 0 261 0C292 0 402 -3 418 -3Z" stroke="rgb(0,0,0)" stroke-opacity="1" stroke-width="8" fill="rgb(0,0,0)" fill-opacity="1"></path></g></g></g></g><g><g><g><g transform="matrix(1,0,0,1,586.5,223.526875)"><path transform="matrix(0.024480000000000002,0,0,-0.024480000000000002,0,0)" d="M240 722L228 733C176 707 140 698 68 691L64 670L112 670C136 670 146 663 146 646C146 638 145 629 144 622L96 354C82 279 66 210 14 1L23 -9L90 8L113 132C122 180 146 225 180 259C249 59 281 -9 306 -9C319 -9 343 4 387 35L433 67L425 86L382 62C368 54 361 52 353 52C343 52 336 58 327 75C292 139 270 193 231 316L245 330C306 391 352 416 402 416C410 416 421 414 438 410L455 473C437 479 419 482 407 482C341 482 258 405 133 230Z" stroke="rgb(0,0,0)" stroke-opacity="1" stroke-width="8" fill="rgb(0,0,0)" fill-opacity="1"></path></g></g></g></g><line style="fill:none;stroke-width:1px;stroke:rgb(0, 0, 0);" x1="586.125" y1="197.9375" x2="598.34375" y2="197.9375"></line></g><g><g transform="matrix(1,0,0,1,600.78125,204.526875)"><path transform="matrix(0.024480000000000002,0,0,-0.024480000000000002,0,0)" d="M417 267L286 213L281 204L317 153L327 153L433 241L451 99L461 95L529 121L529 131L461 253L599 233L608 241L608 303L602 307L463 283L532 408L529 423L467 442L458 438L432 295L337 393L327 393L283 341L286 331Z" stroke="rgb(0,0,0)" stroke-opacity="1" stroke-width="8" fill="rgb(0,0,0)" fill-opacity="1"></path></g></g><g><g><g><g><g transform="matrix(1,0,0,1,627.96875,171.511)"><path transform="matrix(0.017136,0,0,-0.017136,0,0)" d="M240 722L228 733C176 707 140 698 68 691L64 670L112 670C136 670 146 663 146 646C146 638 145 629 144 622L96 354C82 279 66 210 14 1L23 -9L90 8L113 132C122 180 146 225 180 259C249 59 281 -9 306 -9C319 -9 343 4 387 35L433 67L425 86L382 62C368 54 361 52 353 52C343 52 336 58 327 75C292 139 270 193 231 316L245 330C306 391 352 416 402 416C410 416 421 414 438 410L455 473C437 479 419 482 407 482C341 482 258 405 133 230Z" stroke="rgb(0,0,0)" stroke-opacity="1" stroke-width="8" fill="rgb(0,0,0)" fill-opacity="1"></path></g></g></g></g><g><g><g><g transform="matrix(1,0,0,1,619.609375,230.511)"><path transform="matrix(0.017136,0,0,-0.017136,0,0)" d="M34 388L41 368L73 389C110 412 113 414 120 414C130 414 138 404 138 391C138 384 134 361 130 347L64 107C56 76 51 49 51 30C51 6 62 -9 81 -9C107 -9 143 12 241 85L231 103L205 86C176 67 153 56 144 56C137 56 131 66 131 76C131 86 133 95 138 116L215 420C219 437 221 448 221 456C221 473 212 482 196 482C174 482 137 461 62 408ZM228 712C199 712 170 679 170 645C170 620 185 604 209 604C240 604 264 633 264 671C264 695 249 712 228 712ZM881 347L881 406L342 406L342 347ZM881 134L881 193L342 193L342 134ZM1363 -3L1363 27L1311 30C1256 33 1246 44 1246 96L1246 700L1005 598L1012 548L1162 614L1162 96C1162 44 1151 33 1097 30L1041 27L1041 -3C1195 0 1195 0 1206 0C1237 0 1347 -3 1363 -3Z" stroke="rgb(0,0,0)" stroke-opacity="1" stroke-width="8" fill="rgb(0,0,0)" fill-opacity="1"></path></g></g></g></g><g><g transform="matrix(1,0,0,1,616.375,200.095)"><path transform="matrix(0.036719999999999996,0,0,-0.036719999999999996,0,0)" d="M788 13L772 -310L62 -310L420 133L66 620L754 620L768 346L732 346C718 428 694 486 662 522C626 559 572 578 498 578L246 578L524 194L214 -205L512 -205C592 -205 648 -190 680 -162C714 -132 734 -74 746 13Z" stroke="rgb(0,0,0)" stroke-opacity="1" stroke-width="8" fill="rgb(0,0,0)" fill-opacity="1"></path></g></g></g><g><g transform="matrix(1,0,0,1,651.265625,204.526875)"><path transform="matrix(0.024480000000000002,0,0,-0.024480000000000002,0,0)" d="M146 266C146 526 243 632 301 700L282 726C225 675 60 542 60 266C60 159 85 58 133 -32C168 -99 200 -138 282 -215L301 -194C255 -137 146 -15 146 266Z" stroke="rgb(0,0,0)" stroke-opacity="1" stroke-width="8" fill="rgb(0,0,0)" fill-opacity="1"></path></g></g><g><g transform="matrix(1,0,0,1,659.390625,204.526875)"><path transform="matrix(0.024480000000000002,0,0,-0.024480000000000002,0,0)" d="" stroke="rgb(0,0,0)" stroke-opacity="1" stroke-width="8" fill="rgb(0,0,0)" fill-opacity="1"></path></g></g><g><g><g><g><g transform="matrix(1,0,0,1,665.484375,204.526875)"><path transform="matrix(0.024480000000000002,0,0,-0.024480000000000002,0,0)" d="M-7 -180C-8 -187 -8 -193 -8 -198C-8 -241 29 -276 74 -276C180 -276 290 -152 349 33L490 473L479 482C450 471 427 465 405 463L370 331C358 284 323 211 290 162C255 111 206 67 184 67C172 67 163 90 164 115L180 322C182 353 184 391 184 419C184 464 177 482 160 482C147 482 133 475 85 442L3 386L14 368L64 398C69 401 80 410 89 410C103 410 111 391 111 358C111 357 111 351 110 343L93 100L92 60C92 18 110 -11 135 -11C172 -11 256 74 331 187L282 16C231 -161 181 -234 111 -234C76 -234 49 -207 49 -172C49 -167 50 -159 51 -150L41 -146Z" stroke="rgb(0,0,0)" stroke-opacity="1" stroke-width="8" fill="rgb(0,0,0)" fill-opacity="1"></path></g></g></g></g><svg x="665.484375" overflow="visible" y="178.046875" height="12" width="12.21875"><polyline points="0.00,10.64 6.11,6.57 12.22,10.64" style="fill:none;fill-opacity:1;stroke-width:1px;stroke:rgb(0,0,0);stroke-opacity:1;"></polyline></svg></g><g><g><g><g><g transform="matrix(1,0,0,1,678.4375,213.682875)"><path transform="matrix(0.017136,0,0,-0.017136,0,0)" d="M34 388L41 368L73 389C110 412 113 414 120 414C130 414 138 404 138 391C138 384 134 361 130 347L64 107C56 76 51 49 51 30C51 6 62 -9 81 -9C107 -9 143 12 241 85L231 103L205 86C176 67 153 56 144 56C137 56 131 66 131 76C131 86 133 95 138 116L215 420C219 437 221 448 221 456C221 473 212 482 196 482C174 482 137 461 62 408ZM228 712C199 712 170 679 170 645C170 620 185 604 209 604C240 604 264 633 264 671C264 695 249 712 228 712Z" stroke="rgb(0,0,0)" stroke-opacity="1" stroke-width="8" fill="rgb(0,0,0)" fill-opacity="1"></path></g></g></g></g></g><g><g transform="matrix(1,0,0,1,684.65625,204.526875)"><path transform="matrix(0.024480000000000002,0,0,-0.024480000000000002,0,0)" d="" stroke="rgb(0,0,0)" stroke-opacity="1" stroke-width="8" fill="rgb(0,0,0)" fill-opacity="1"></path></g></g><g><g transform="matrix(1,0,0,1,695.640625,204.526875)"><path transform="matrix(0.024480000000000002,0,0,-0.024480000000000002,0,0)" d="M555 243L555 299L51 299L51 243Z" stroke="rgb(0,0,0)" stroke-opacity="1" stroke-width="8" fill="rgb(0,0,0)" fill-opacity="1"></path></g></g><g><g transform="matrix(1,0,0,1,715.34375,204.526875)"><path transform="matrix(0.024480000000000002,0,0,-0.024480000000000002,0,0)" d="M242 -180C241 -187 241 -193 241 -198C241 -241 278 -276 323 -276C429 -276 539 -152 598 33L739 473L728 482C699 471 676 465 654 463L619 331C607 284 572 211 539 162C504 111 455 67 433 67C421 67 412 90 413 115L429 322C431 353 433 391 433 419C433 464 426 482 409 482C396 482 382 475 334 442L252 386L263 368L313 398C318 401 329 410 338 410C352 410 360 391 360 358C360 357 360 351 359 343L342 100L341 60C341 18 359 -11 384 -11C421 -11 505 74 580 187L531 16C480 -161 430 -234 360 -234C325 -234 298 -207 298 -172C298 -167 299 -159 300 -150L290 -146Z" stroke="rgb(0,0,0)" stroke-opacity="1" stroke-width="8" fill="rgb(0,0,0)" fill-opacity="1"></path></g></g><g><g><g><g><g transform="matrix(1,0,0,1,734.390625,208.839125)"><path transform="matrix(0.017136,0,0,-0.017136,0,0)" d="M34 388L41 368L73 389C110 412 113 414 120 414C130 414 138 404 138 391C138 384 134 361 130 347L64 107C56 76 51 49 51 30C51 6 62 -9 81 -9C107 -9 143 12 241 85L231 103L205 86C176 67 153 56 144 56C137 56 131 66 131 76C131 86 133 95 138 116L215 420C219 437 221 448 221 456C221 473 212 482 196 482C174 482 137 461 62 408ZM228 712C199 712 170 679 170 645C170 620 185 604 209 604C240 604 264 633 264 671C264 695 249 712 228 712Z" stroke="rgb(0,0,0)" stroke-opacity="1" stroke-width="8" fill="rgb(0,0,0)" fill-opacity="1"></path></g></g></g></g></g><g><g transform="matrix(1,0,0,1,740.609375,204.526875)"><path transform="matrix(0.024480000000000002,0,0,-0.024480000000000002,0,0)" d="" stroke="rgb(0,0,0)" stroke-opacity="1" stroke-width="8" fill="rgb(0,0,0)" fill-opacity="1"></path></g></g><g><g transform="matrix(1,0,0,1,746.703125,204.526875)"><path transform="matrix(0.024480000000000002,0,0,-0.024480000000000002,0,0)" d="M51 726L32 700C87 636 187 526 187 266C187 -10 83 -131 32 -194L51 -215C104 -165 273 -23 273 265C273 542 108 675 51 726Z" stroke="rgb(0,0,0)" stroke-opacity="1" stroke-width="8" fill="rgb(0,0,0)" fill-opacity="1"></path></g></g><g><g><g><g><g transform="matrix(1,0,0,1,756.234375,195.432875)"><path transform="matrix(0.017136,0,0,-0.017136,0,0)" d="M16 23L16 -3C203 -3 203 0 239 0C275 0 275 -3 468 -3L468 82C353 77 307 81 122 77L304 270C401 373 431 428 431 503C431 618 353 689 226 689C154 689 105 669 56 619L39 483L68 483L81 529C97 587 133 612 200 612C286 612 341 558 341 473C341 398 299 324 186 204Z" stroke="rgb(0,0,0)" stroke-opacity="1" stroke-width="8" fill="rgb(0,0,0)" fill-opacity="1"></path></g></g></g></g></g></g></g><g><g><g><g transform="matrix(1,0,0,1,81.296875,110.8375)"><path transform="matrix(0.020399999999999998,0,0,-0.020399999999999998,0,0)" d="M349 664L352 692L238 689C222 689 204 689 161 690L97 692L94 664L141 662C165 661 176 653 176 635L81 55C77 37 65 30 21 23L16 -3L57 -2C88 -1 150 0 170 0C170 0 467 -1 467 -1C467 -1 500 0 500 0C499 25 510 103 523 165L492 165L475 103C466 71 457 54 448 49C435 44 371 39 304 39C255 39 228 40 162 46C165 64 256 605 256 613C263 651 270 658 307 661Z" stroke="rgb(0,0,0)" stroke-opacity="1" stroke-width="8" fill="rgb(0,0,0)" fill-opacity="1"></path></g></g><g><g transform="matrix(1,0,0,1,92.625,110.8375)"><path transform="matrix(0.020399999999999998,0,0,-0.020399999999999998,0,0)" d="M146 266C146 526 243 632 301 700L282 726C225 675 60 542 60 266C60 159 85 58 133 -32C168 -99 200 -138 282 -215L301 -194C255 -137 146 -15 146 266Z" stroke="rgb(0,0,0)" stroke-opacity="1" stroke-width="8" fill="rgb(0,0,0)" fill-opacity="1"></path></g></g><g><g><g><g><g transform="matrix(1,0,0,1,99.40625,110.8375)"><path transform="matrix(0.020399999999999998,0,0,-0.020399999999999998,0,0)" d="M-7 -180C-8 -187 -8 -193 -8 -198C-8 -241 29 -276 74 -276C180 -276 290 -152 349 33L490 473L479 482C450 471 427 465 405 463L370 331C358 284 323 211 290 162C255 111 206 67 184 67C172 67 163 90 164 115L180 322C182 353 184 391 184 419C184 464 177 482 160 482C147 482 133 475 85 442L3 386L14 368L64 398C69 401 80 410 89 410C103 410 111 391 111 358C111 357 111 351 110 343L93 100L92 60C92 18 110 -11 135 -11C172 -11 256 74 331 187L282 16C231 -161 181 -234 111 -234C76 -234 49 -207 49 -172C49 -167 50 -159 51 -150L41 -146Z" stroke="rgb(0,0,0)" stroke-opacity="1" stroke-width="8" fill="rgb(0,0,0)" fill-opacity="1"></path></g></g></g></g><svg x="99.40625" overflow="visible" y="88.4375" height="10" width="10.1875"><polyline points="0.00,8.87 5.09,5.47 10.19,8.87" style="fill:none;fill-opacity:1;stroke-width:1px;stroke:rgb(0,0,0);stroke-opacity:1;"></polyline></svg></g><g><g transform="matrix(1,0,0,1,109.59375,110.8375)"><path transform="matrix(0.020399999999999998,0,0,-0.020399999999999998,0,0)" d="" stroke="rgb(0,0,0)" stroke-opacity="1" stroke-width="8" fill="rgb(0,0,0)" fill-opacity="1"></path></g></g><g><g transform="matrix(1,0,0,1,118.75,110.8375)"><path transform="matrix(0.020399999999999998,0,0,-0.020399999999999998,0,0)" d="M555 243L555 299L51 299L51 243Z" stroke="rgb(0,0,0)" stroke-opacity="1" stroke-width="8" fill="rgb(0,0,0)" fill-opacity="1"></path></g></g><g><g transform="matrix(1,0,0,1,135.171875,110.8375)"><path transform="matrix(0.020399999999999998,0,0,-0.020399999999999998,0,0)" d="M242 -180C241 -187 241 -193 241 -198C241 -241 278 -276 323 -276C429 -276 539 -152 598 33L739 473L728 482C699 471 676 465 654 463L619 331C607 284 572 211 539 162C504 111 455 67 433 67C421 67 412 90 413 115L429 322C431 353 433 391 433 419C433 464 426 482 409 482C396 482 382 475 334 442L252 386L263 368L313 398C318 401 329 410 338 410C352 410 360 391 360 358C360 357 360 351 359 343L342 100L341 60C341 18 359 -11 384 -11C421 -11 505 74 580 187L531 16C480 -161 430 -234 360 -234C325 -234 298 -207 298 -172C298 -167 299 -159 300 -150L290 -146Z" stroke="rgb(0,0,0)" stroke-opacity="1" stroke-width="8" fill="rgb(0,0,0)" fill-opacity="1"></path></g></g><g><g transform="matrix(1,0,0,1,150.4375,110.8375)"><path transform="matrix(0.020399999999999998,0,0,-0.020399999999999998,0,0)" d="M51 726L32 700C87 636 187 526 187 266C187 -10 83 -131 32 -194L51 -215C104 -165 273 -23 273 265C273 542 108 675 51 726Z" stroke="rgb(0,0,0)" stroke-opacity="1" stroke-width="8" fill="rgb(0,0,0)" fill-opacity="1"></path></g></g></g></g><g><g><g><g><g><g><g transform="matrix(1,0,0,1,189.546875,351.946875)"><path transform="matrix(0.020399999999999998,0,0,-0.020399999999999998,0,0)" d="M-7 -180C-8 -187 -8 -193 -8 -198C-8 -241 29 -276 74 -276C180 -276 290 -152 349 33L490 473L479 482C450 471 427 465 405 463L370 331C358 284 323 211 290 162C255 111 206 67 184 67C172 67 163 90 164 115L180 322C182 353 184 391 184 419C184 464 177 482 160 482C147 482 133 475 85 442L3 386L14 368L64 398C69 401 80 410 89 410C103 410 111 391 111 358C111 357 111 351 110 343L93 100L92 60C92 18 110 -11 135 -11C172 -11 256 74 331 187L282 16C231 -161 181 -234 111 -234C76 -234 49 -207 49 -172C49 -167 50 -159 51 -150L41 -146Z" stroke="rgb(0,0,0)" stroke-opacity="1" stroke-width="8" fill="rgb(0,0,0)" fill-opacity="1"></path></g></g></g></g><svg x="189.546875" overflow="visible" y="329.546875" height="10" width="10.1875"><polyline points="0.00,8.87 5.09,5.47 10.19,8.87" style="fill:none;fill-opacity:1;stroke-width:1px;stroke:rgb(0,0,0);stroke-opacity:1;"></polyline></svg></g><g><g transform="matrix(1,0,0,1,205.84375,351.946875)"><path transform="matrix(0.020399999999999998,0,0,-0.020399999999999998,0,0)" d="M604 347L604 406L65 406L65 347ZM604 134L604 193L65 193L65 134Z" stroke="rgb(0,0,0)" stroke-opacity="1" stroke-width="8" fill="rgb(0,0,0)" fill-opacity="1"></path></g></g><g><g transform="matrix(1,0,0,1,225.578125,351.946875)"><path transform="matrix(0.020399999999999998,0,0,-0.020399999999999998,0,0)" d="M-7 -180C-8 -187 -8 -193 -8 -198C-8 -241 29 -276 74 -276C180 -276 290 -152 349 33L490 473L479 482C450 471 427 465 405 463L370 331C358 284 323 211 290 162C255 111 206 67 184 67C172 67 163 90 164 115L180 322C182 353 184 391 184 419C184 464 177 482 160 482C147 482 133 475 85 442L3 386L14 368L64 398C69 401 80 410 89 410C103 410 111 391 111 358C111 357 111 351 110 343L93 100L92 60C92 18 110 -11 135 -11C172 -11 256 74 331 187L282 16C231 -161 181 -234 111 -234C76 -234 49 -207 49 -172C49 -167 50 -159 51 -150L41 -146Z" stroke="rgb(0,0,0)" stroke-opacity="1" stroke-width="8" fill="rgb(0,0,0)" fill-opacity="1"></path></g></g></g></g><g><g><g><g transform="matrix(1,0,0,1,33,47.480000000000004)"><path transform="matrix(0.024480000000000002,0,0,-0.024480000000000002,0,0)" d="M349 664L352 692L238 689C222 689 204 689 161 690L97 692L94 664L141 662C165 661 176 653 176 635L81 55C77 37 65 30 21 23L16 -3L57 -2C88 -1 150 0 170 0C170 0 467 -1 467 -1C467 -1 500 0 500 0C499 25 510 103 523 165L492 165L475 103C466 71 457 54 448 49C435 44 371 39 304 39C255 39 228 40 162 46C165 64 256 605 256 613C263 651 270 658 307 661ZM572 152C572 46 617 -11 700 -11C755 -11 815 15 860 57C922 116 966 230 966 331C966 425 916 482 833 482C729 482 572 382 572 152ZM796 444C857 444 890 399 890 315C890 219 859 113 815 60C797 39 771 27 740 27C682 27 648 72 648 151C648 264 687 387 736 427C749 438 772 444 796 444ZM1029 148C1024 97 1018 62 1007 16C1045 -2 1079 -11 1114 -11C1163 -11 1209 7 1260 47C1311 87 1332 124 1332 174C1332 228 1300 257 1226 271L1183 279C1123 290 1104 307 1104 348C1104 401 1149 442 1206 442C1247 442 1285 424 1301 397L1301 342L1324 342C1328 377 1332 404 1343 455C1304 474 1276 482 1243 482C1191 482 1130 452 1082 404C1056 377 1045 352 1045 316C1045 260 1076 228 1142 215L1205 203C1249 195 1265 177 1265 138C1265 73 1219 29 1148 29C1113 29 1082 40 1054 64L1054 148ZM1417 148C1412 97 1406 62 1395 16C1433 -2 1467 -11 1502 -11C1551 -11 1597 7 1648 47C1699 87 1720 124 1720 174C1720 228 1688 257 1614 271L1571 279C1511 290 1492 307 1492 348C1492 401 1537 442 1594 442C1635 442 1673 424 1689 397L1689 342L1712 342C1716 377 1720 404 1731 455C1692 474 1664 482 1631 482C1579 482 1518 452 1470 404C1444 377 1433 352 1433 316C1433 260 1464 228 1530 215L1593 203C1637 195 1653 177 1653 138C1653 73 1607 29 1536 29C1501 29 1470 40 1442 64L1442 148ZM2309 646L2415 650C2477 650 2517 641 2518 626L2526 537L2550 537C2553 600 2560 651 2571 689C2549 691 2521 692 2504 692L2463 691L2298 689L2269 689C2244 689 2204 690 2166 691L2117 692L2114 664L2170 662C2194 661 2205 652 2205 635C2205 621 2201 589 2196 559L2121 125C2104 33 2104 32 2063 28L2027 25L2023 -3L2057 -2C2097 -1 2129 0 2150 0C2168 0 2197 -1 2236 -2L2288 -3L2291 25L2227 28C2200 29 2191 37 2191 57C2191 63 2192 74 2193 78L2229 301L2346 301C2373 301 2404 300 2452 298L2478 297L2497 342L2493 349C2412 345 2352 343 2274 343L2237 343L2283 614C2286 630 2287 635 2292 646ZM3070 473L3063 482L2995 465L2985 414C2970 336 2945 268 2914 221C2855 130 2777 59 2737 59C2729 59 2724 68 2724 85C2724 99 2726 112 2731 137L2788 408C2791 424 2793 438 2793 451C2793 470 2784 482 2770 482C2750 482 2712 461 2638 408L2610 388L2617 368L2649 389C2677 407 2688 412 2697 412C2706 412 2714 403 2714 392C2714 388 2713 378 2712 374L2649 77C2647 68 2645 44 2645 30C2645 7 2660 -11 2680 -11C2743 -11 2864 101 2948 239L2911 97C2904 73 2900 46 2900 31C2900 6 2911 -9 2930 -9C2956 -9 2992 12 3090 85L3080 103L3054 86C3030 70 3004 59 2993 59C2985 59 2980 66 2980 76C2980 112 3055 416 3070 473ZM3157 388L3164 368L3196 389C3233 412 3236 414 3243 414C3254 414 3261 404 3261 389C3261 338 3220 145 3179 2L3186 -9C3211 -2 3234 4 3256 8C3275 134 3296 199 3342 268C3396 352 3471 414 3516 414C3527 414 3533 405 3533 390C3533 372 3530 351 3522 319L3470 107C3461 70 3457 47 3457 31C3457 6 3468 -9 3487 -9C3513 -9 3549 12 3647 85L3637 103L3611 86C3582 67 3560 56 3550 56C3543 56 3537 65 3537 76C3537 81 3538 92 3539 96L3605 372C3612 401 3616 429 3616 446C3616 469 3605 482 3585 482C3543 482 3474 444 3415 389C3377 354 3349 320 3297 247L3335 408C3339 426 3341 438 3341 449C3341 470 3333 482 3318 482C3297 482 3258 460 3185 408ZM4030 330L4053 330C4061 395 4068 432 4077 458C4053 473 4018 482 3981 482C3936 483 3863 463 3806 400C3752 352 3713 241 3713 136C3713 40 3755 -11 3835 -11C3889 -11 3937 9 3992 54L4042 95L4034 115L4019 105C3947 57 3909 40 3874 40C3818 40 3789 80 3789 159C3789 267 3824 371 3873 409C3894 425 3918 433 3949 433C3994 433 4030 414 4030 390ZM4219 390L4163 107C4162 99 4150 61 4150 31C4150 6 4161 -9 4180 -9C4215 -9 4250 11 4328 74L4359 99L4349 117L4304 86C4275 66 4255 56 4244 56C4235 56 4230 64 4230 76C4230 102 4244 183 4273 328L4286 390L4393 390L4404 440C4366 436 4332 434 4294 434C4310 528 4321 577 4339 631L4328 646C4308 634 4281 622 4250 610L4225 440C4181 419 4155 408 4137 403L4135 390ZM4460 388L4467 368L4499 389C4536 412 4539 414 4546 414C4556 414 4564 404 4564 391C4564 384 4560 361 4556 347L4490 107C4482 76 4477 49 4477 30C4477 6 4488 -9 4507 -9C4533 -9 4569 12 4667 85L4657 103L4631 86C4602 67 4579 56 4570 56C4563 56 4557 66 4557 76C4557 86 4559 95 4564 116L4641 420C4645 437 4647 448 4647 456C4647 473 4638 482 4622 482C4600 482 4563 461 4488 408ZM4654 712C4625 712 4596 679 4596 645C4596 620 4611 604 4635 604C4666 604 4690 633 4690 671C4690 695 4675 712 4654 712ZM4720 152C4720 46 4765 -11 4848 -11C4903 -11 4963 15 5008 57C5070 116 5114 230 5114 331C5114 425 5064 482 4981 482C4877 482 4720 382 4720 152ZM4944 444C5005 444 5038 399 5038 315C5038 219 5007 113 4963 60C4945 39 4919 27 4888 27C4830 27 4796 72 4796 151C4796 264 4835 387 4884 427C4897 438 4920 444 4944 444ZM5170 388L5177 368L5209 389C5246 412 5249 414 5256 414C5267 414 5274 404 5274 389C5274 338 5233 145 5192 2L5199 -9C5224 -2 5247 4 5269 8C5288 134 5309 199 5355 268C5409 352 5484 414 5529 414C5540 414 5546 405 5546 390C5546 372 5543 351 5535 319L5483 107C5474 70 5470 47 5470 31C5470 6 5481 -9 5500 -9C5526 -9 5562 12 5660 85L5650 103L5624 86C5595 67 5573 56 5563 56C5556 56 5550 65 5550 76C5550 81 5551 92 5552 96L5618 372C5625 401 5629 429 5629 446C5629 469 5618 482 5598 482C5556 482 5487 444 5428 389C5390 354 5362 320 5310 247L5348 408C5352 426 5354 438 5354 449C5354 470 5346 482 5331 482C5310 482 5271 460 5198 408Z" stroke="rgb(0,0,0)" stroke-opacity="1" stroke-width="8" fill="rgb(0,0,0)" fill-opacity="1"></path></g></g><g><g transform="matrix(1,0,0,1,183.484375,47.480000000000004)"><path transform="matrix(0.024480000000000002,0,0,-0.024480000000000002,0,0)" d="M555 243L555 299L51 299L51 243Z" stroke="rgb(0,0,0)" stroke-opacity="1" stroke-width="8" fill="rgb(0,0,0)" fill-opacity="1"></path></g></g><g><g transform="matrix(1,0,0,1,203.1875,47.480000000000004)"><path transform="matrix(0.024480000000000002,0,0,-0.024480000000000002,0,0)" d="M1186 664L1199 695C1171 699 1024 701 1022 692L937 536L691 114L541 692C518 686 395 690 374 692L371 664L397 662C449 658 467 648 467 622C467 616 321 100 319 93C303 41 288 28 233 23L230 -3L269 -2C303 -1 328 0 342 0C356 0 382 -1 417 -2L452 -3L455 25L417 28C385 30 368 40 368 55C368 65 370 78 375 96L499 560L648 -18L671 -18L728 86L967 500L1019 587L982 67C978 39 966 32 915 28L884 25L881 -3L928 -2C970 -1 1000 0 1015 0C1031 0 1061 -1 1102 -2L1148 -3L1151 25L1114 28C1078 31 1060 42 1060 63L1061 100L1102 631C1104 650 1119 660 1148 662ZM1310 471C1310 386 1348 339 1432 319L1527 296C1581 283 1608 248 1608 191C1608 96 1537 30 1434 30C1380 30 1342 42 1298 73L1298 172L1268 172C1262 117 1255 72 1244 20C1293 -5 1346 -18 1399 -18C1554 -18 1687 99 1687 234C1687 313 1644 355 1543 377L1478 391C1412 405 1382 442 1382 508C1382 595 1449 658 1541 658C1590 658 1623 645 1653 613L1653 537L1683 537C1687 591 1694 629 1708 672C1663 696 1623 706 1576 706C1452 706 1310 614 1310 471ZM1978 334L2095 334L2227 330L2246 375L2242 382C2161 378 2101 376 2023 376L1986 376L2033 646C2065 647 2148 650 2170 650C2232 650 2273 641 2274 626L2282 537L2306 537C2309 601 2316 651 2327 689C2306 691 2276 692 2258 692C2255 692 2244 692 2220 691L2100 690C2091 689 1917 691 1907 691L1862 692L1859 664L1913 662C1937 661 1948 653 1948 635C1948 621 1944 589 1939 559L1852 55C1848 37 1836 30 1792 23L1787 -3L1828 -2C1859 -1 1921 0 1941 0L2166 -3C2180 -3 2205 -2 2238 -1L2271 0L2275 36C2277 56 2282 86 2291 135L2296 161L2269 161L2253 101C2243 65 2234 53 2212 48C2192 44 2119 39 2065 39C2024 39 1997 40 1928 46Z" stroke="rgb(0,0,0)" stroke-opacity="1" stroke-width="8" fill="rgb(0,0,0)" fill-opacity="1"></path></g></g></g></g><g><g><g><g><g><g><g transform="matrix(1,0,0,1,417.890625,351.946875)"><path transform="matrix(0.020399999999999998,0,0,-0.020399999999999998,0,0)" d="M-7 -180C-8 -187 -8 -193 -8 -198C-8 -241 29 -276 74 -276C180 -276 290 -152 349 33L490 473L479 482C450 471 427 465 405 463L370 331C358 284 323 211 290 162C255 111 206 67 184 67C172 67 163 90 164 115L180 322C182 353 184 391 184 419C184 464 177 482 160 482C147 482 133 475 85 442L3 386L14 368L64 398C69 401 80 410 89 410C103 410 111 391 111 358C111 357 111 351 110 343L93 100L92 60C92 18 110 -11 135 -11C172 -11 256 74 331 187L282 16C231 -161 181 -234 111 -234C76 -234 49 -207 49 -172C49 -167 50 -159 51 -150L41 -146Z" stroke="rgb(0,0,0)" stroke-opacity="1" stroke-width="8" fill="rgb(0,0,0)" fill-opacity="1"></path></g></g></g></g><svg x="417.890625" overflow="visible" y="329.546875" height="10" width="10.1875"><polyline points="0.00,8.87 5.09,5.47 10.19,8.87" style="fill:none;fill-opacity:1;stroke-width:1px;stroke:rgb(0,0,0);stroke-opacity:1;"></polyline></svg></g></g></g></svg>
</svg>
