<svg xmlns="http://www.w3.org/2000/svg" xmlns:xlink="http://www.w3.org/1999/xlink" x="0" y="0" width="862" height="441.98333740234375" style="
        width:862px;
        height:441.98333740234375px;
        background: transparent;
        fill: none;
">
        
        
        <svg xmlns="http://www.w3.org/2000/svg" class="role-diagram-draw-area"><g class="shapes-region" style="stroke: black; fill: none;"><g class="composite-shape"><path class="real" d=" M139.83,156.41 C139.83,144.47 150.65,134.79 164,134.79 C177.35,134.79 188.17,144.47 188.17,156.41 C188.17,168.35 177.35,178.03 164,178.03 C150.65,178.03 139.83,168.35 139.83,156.41 Z" style="stroke-width: 3px; stroke: rgb(0, 104, 132); stroke-opacity: 1; fill: none; fill-opacity: 1;"/></g><g class="composite-shape"><path class="real" d=" M139,105.36 C139,93.01 150.19,83 164,83 C177.81,83 189,93.01 189,105.36 C189,117.72 177.81,127.73 164,127.73 C150.19,127.73 139,117.72 139,105.36 Z" style="stroke-width: 3px; stroke: rgb(0, 104, 132); stroke-opacity: 1; fill: none; fill-opacity: 1;"/></g><g class="composite-shape"><path class="real" d=" M139.33,210.79 C139.33,198.32 150.64,188.21 164.58,188.21 C178.53,188.21 189.83,198.32 189.83,210.79 C189.83,223.27 178.53,233.38 164.58,233.38 C150.64,233.38 139.33,223.27 139.33,210.79 Z" style="stroke-width: 3px; stroke: rgb(0, 104, 132); stroke-opacity: 1; fill: none; fill-opacity: 1;"/></g><g class="composite-shape"><path class="real" d=" M139,343.01 C139,330.86 150.01,321.01 163.59,321.01 C177.17,321.01 188.17,330.86 188.17,343.01 C188.17,355.15 177.17,365 163.59,365 C150.01,365 139,355.15 139,343.01 Z" style="stroke-width: 3px; stroke: rgb(0, 104, 132); stroke-opacity: 1; fill: none; fill-opacity: 1;"/></g><g class="composite-shape"><path class="real" d=" M162.54,251.11 C162.54,250.12 163.44,249.32 164.54,249.32 C165.64,249.32 166.54,250.12 166.54,251.11 C166.54,252.09 165.64,252.89 164.54,252.89 C163.44,252.89 162.54,252.09 162.54,251.11 Z" style="stroke-width: 3px; stroke: rgb(0, 104, 132); stroke-opacity: 1; fill: rgb(0, 0, 0); fill-opacity: 1;"/></g><g class="composite-shape"><path class="real" d=" M162.21,271.73 C162.21,270.74 163.1,269.94 164.21,269.94 C165.31,269.94 166.21,270.74 166.21,271.73 C166.21,272.72 165.31,273.52 164.21,273.52 C163.1,273.52 162.21,272.72 162.21,271.73 Z" style="stroke-width: 3px; stroke: rgb(0, 104, 132); stroke-opacity: 1; fill: rgb(0, 0, 0); fill-opacity: 1;"/></g><g class="composite-shape"><path class="real" d=" M161.71,289.69 C161.71,288.7 162.61,287.9 163.71,287.9 C164.81,287.9 165.71,288.7 165.71,289.69 C165.71,290.67 164.81,291.47 163.71,291.47 C162.61,291.47 161.71,290.67 161.71,289.69 Z" style="stroke-width: 3px; stroke: rgb(0, 104, 132); stroke-opacity: 1; fill: rgb(0, 0, 0); fill-opacity: 1;"/></g><g class="composite-shape"><path class="real" d=" M365.1,226.67 C365.1,211.57 378.79,199.34 395.66,199.34 C412.54,199.34 426.22,211.57 426.22,226.67 C426.22,241.77 412.54,254.01 395.66,254.01 C378.79,254.01 365.1,241.77 365.1,226.67 Z" style="stroke-width: 3px; stroke: rgb(0, 104, 132); stroke-opacity: 1; fill: none; fill-opacity: 1;"/></g><g class="arrow-line"><path class="connection real" stroke-dasharray="" d="  M188.43,111.05 L360.92,223.93" style="stroke: rgb(0, 104, 132); stroke-opacity: 1; stroke-width: 3px; fill: none; fill-opacity: 1;"/><g stroke="none" fill="rgb(0,104,132)" fill-opacity="1" transform="matrix(-0.8367643134589619,-0.54756322349255,0.54756322349255,-0.8367643134589619,365.1046629822938,226.67098193705283)" style="stroke: none; fill: rgb(0, 104, 132); stroke-width: 3px;"><path d=" M14.29,-6.86 L0,0 L14.29,6.86 Z"/></g></g><g class="arrow-line"><path class="connection real" stroke-dasharray="" d="  M188.43,160.76 L360.42,224.92" style="stroke: rgb(0, 104, 132); stroke-opacity: 1; stroke-width: 3px; fill: none; fill-opacity: 1;"/><g stroke="none" fill="rgb(0,104,132)" fill-opacity="1" transform="matrix(-0.9369164518419248,-0.3495533754206046,0.3495533754206046,-0.9369164518419248,365.10466298229386,226.6709819370529)" style="stroke: none; fill: rgb(0, 104, 132); stroke-width: 3px;"><path d=" M14.29,-6.86 L0,0 L14.29,6.86 Z"/></g></g><g class="arrow-line"><path class="connection real" stroke-dasharray="" d="  M189.83,210.79 L360.13,226.22" style="stroke: rgb(0, 104, 132); stroke-opacity: 1; stroke-width: 3px; fill: none; fill-opacity: 1;"/><g stroke="none" fill="rgb(0,104,132)" fill-opacity="1" transform="matrix(-0.9959159746812618,-0.09028494544868587,0.09028494544868587,-0.9959159746812618,365.10466298229375,226.67098193705283)" style="stroke: none; fill: rgb(0, 104, 132); stroke-width: 3px;"><path d=" M14.29,-6.86 L0,0 L14.29,6.86 Z"/></g></g><g class="arrow-line"><path class="connection real" stroke-dasharray="" d="  M185.68,330.81 L360.78,229.18" style="stroke: rgb(0, 104, 132); stroke-opacity: 1; stroke-width: 3px; fill: none; fill-opacity: 1;"/><g stroke="none" fill="rgb(0,104,132)" fill-opacity="1" transform="matrix(-0.8648887115806922,0.5019636606172704,-0.5019636606172704,-0.8648887115806922,365.10466298229375,226.67098193705283)" style="stroke: none; fill: rgb(0, 104, 132); stroke-width: 3px;"><path d=" M14.29,-6.86 L0,0 L14.29,6.86 Z"/></g></g><g class="composite-shape"><path class="real" d=" M370.54,111.89 C370.54,99.54 381.74,89.53 395.55,89.53 C409.35,89.53 420.55,99.54 420.55,111.89 C420.55,124.25 409.35,134.26 395.55,134.26 C381.74,134.26 370.54,124.25 370.54,111.89 Z" style="stroke-width: 3px; stroke: rgb(0, 104, 132); stroke-opacity: 1; fill: none; fill-opacity: 1;"/></g><g class="arrow-line"><path class="connection real" stroke-dasharray="" d="  M395.55,134.26 L395.66,199.34" style="stroke: rgb(0, 104, 132); stroke-opacity: 1; stroke-width: 3px; fill: none; fill-opacity: 1;"/></g><g class="arrow-line"><path class="connection real" stroke-dasharray="" d="  M426.22,226.67 L577.18,229.16" style="stroke: rgb(0, 104, 132); stroke-opacity: 1; stroke-width: 3px; fill: none; fill-opacity: 1;"/></g><g class="composite-shape"><path class="real" d=" M577.18,229.16 C577.18,216.81 588.37,206.8 602.18,206.8 C615.99,206.8 627.18,216.81 627.18,229.16 C627.18,241.51 615.99,251.52 602.18,251.52 C588.37,251.52 577.18,241.51 577.18,229.16 Z" style="stroke-width: 3px; stroke: rgb(0, 104, 132); stroke-opacity: 1; fill: none; fill-opacity: 1;"/></g><g class="composite-shape"><path class="real" d=" M648.01,230.16 C654.3,228.78 660,228.05 664.87,228.08 C691.99,228.26 683.16,251.9 645.13,280.88 C607.18,309.8 554.5,333.11 527.33,333.02 L596.02,280.55 Z" style="stroke-width: 3px; stroke: none; stroke-opacity: 1; fill: none; fill-opacity: 1;"/><path class="real" d=" M648.01,230.16 C654.3,228.78 660,228.05 664.87,228.08 C691.99,228.26 683.16,251.9 645.13,280.88 C607.18,309.8 554.5,333.11 527.33,333.02" style="stroke-width: 3px; stroke: rgb(0, 104, 132); stroke-opacity: 1; fill: none; fill-opacity: 1;"/></g><g class="composite-shape"><path class="real" d=" M527.56,339.49 L509.49,333.5 L525.47,323.87" style="stroke-width: 3px; stroke: rgb(0, 104, 132); stroke-opacity: 1; fill: none; fill-opacity: 1;"/></g><g/></g><g/><g/><g/></svg>
        <svg xmlns="http://www.w3.org/2000/svg" xmlns:xlink="http://www.w3.org/1999/xlink" width="860" height="439.98333740234375" style="width:860px;height:439.98333740234375px;font-family:LatinModern-Math, LatinModern, Asana-Math, Asana;background:transparent;"><g><g><g><g transform="matrix(1,0,0,1,370.050048828125,234.85001220703126)"><path transform="matrix(0.020399999999999998,0,0,-0.020399999999999998,0,0)" d="M1009 652L1009 683C979 681 948 680 918 680L799 683L799 652C866 651 886 618 886 599C886 593 883 585 881 579L731 117L571 607C570 611 568 617 568 622C568 652 626 652 652 652L652 683C616 680 548 680 510 680L388 683L388 652C445 652 466 652 478 616L500 546L361 117L200 609C199 612 198 619 198 622C198 652 256 652 282 652L282 683C246 680 178 680 140 680L18 683L18 652C93 652 97 647 109 610L309 -3C312 -12 315 -22 328 -22C342 -22 344 -15 348 -2L513 506L679 -3C682 -12 685 -22 698 -22C712 -22 714 -15 718 -2L909 585C927 642 970 652 1009 652Z" stroke="rgb(0,0,0)" stroke-opacity="1" stroke-width="8" fill="rgb(0,0,0)" fill-opacity="1"></path></g></g><g><g><g><g><g transform="matrix(1,0,0,1,392.199951171875,226.57998779296875)"><path transform="matrix(0.01428,0,0,-0.01428,0,0)" d="M685 452L666 677L55 677L36 452L61 452C75 613 90 646 241 646C259 646 285 646 295 644C316 640 316 629 316 606L316 79C316 45 316 31 211 31L171 31L171 0C212 3 314 3 360 3C406 3 509 3 550 0L550 31L510 31C405 31 405 45 405 79L405 606C405 626 405 640 423 644C434 646 461 646 480 646C631 646 646 613 660 452Z" stroke="rgb(0,0,0)" stroke-opacity="1" stroke-width="8" fill="rgb(0,0,0)" fill-opacity="1"></path></g></g></g></g></g><g><g transform="matrix(1,0,0,1,403.7333984375,234.85001220703126)"><path transform="matrix(0.020399999999999998,0,0,-0.020399999999999998,0,0)" d="M726 0L726 31L707 31C655 31 634 36 613 67L402 386L539 587C561 619 595 651 684 652L684 683L573 680C533 680 485 680 445 683L445 652C485 651 507 629 507 606C507 596 505 594 498 583L384 414L255 607C253 610 248 618 248 622C248 634 270 651 313 652L313 683C278 680 205 680 167 680L37 683L37 652L56 652C111 652 130 645 149 617L333 339L169 97C155 77 125 31 24 31L24 0L135 3C172 3 227 3 263 0L263 31C217 32 200 59 200 77C200 86 203 90 210 101L352 311L510 72C512 68 515 64 515 61C515 49 493 32 450 31L450 0C485 3 558 3 596 3Z" stroke="rgb(0,0,0)" stroke-opacity="1" stroke-width="8" fill="rgb(0,0,0)" fill-opacity="1"></path></g></g></g></g><g><g><g><g transform="matrix(1,0,0,1,389.88330078125,123.06331298828125)"><path transform="matrix(0.024480000000000002,0,0,-0.024480000000000002,0,0)" d="M415 282C415 373 362 442 282 442C236 442 195 413 165 382L239 683C239 683 239 694 226 694C203 694 130 686 104 684C96 683 85 682 85 664C85 652 94 652 109 652C157 652 159 645 159 635C159 628 150 594 145 573L63 247C51 197 47 181 47 146C47 51 100 -11 174 -11C292 -11 415 138 415 282ZM343 326C343 267 310 152 292 114C259 47 213 11 174 11C140 11 107 38 107 112C107 131 107 150 123 213L145 305C151 327 151 329 160 340C209 405 254 420 280 420C316 420 343 390 343 326Z" stroke="rgb(0,0,0)" stroke-opacity="1" stroke-width="8" fill="rgb(0,0,0)" fill-opacity="1"></path></g></g></g></g><g><g><g><g><g><g><g transform="matrix(1,0,0,1,595.5,235.78333129882813)"><path transform="matrix(0.020399999999999998,0,0,-0.020399999999999998,0,0)" d="M490 404C490 422 476 431 461 431C451 431 435 425 426 410C424 405 416 374 412 356L392 276L347 96C343 81 300 11 234 11C183 11 172 55 172 92C172 138 189 200 223 288C239 329 243 340 243 360C243 405 211 442 161 442C66 442 29 297 29 288C29 278 41 278 41 278C51 278 52 280 57 296C84 390 124 420 158 420C166 420 183 420 183 388C183 363 173 337 166 318C126 212 108 155 108 108C108 19 171 -11 230 -11C269 -11 303 6 331 34C318 -18 306 -67 266 -120C240 -154 202 -183 156 -183C142 -183 97 -180 80 -141C96 -141 109 -141 123 -129C133 -120 143 -107 143 -88C143 -57 116 -53 106 -53C83 -53 50 -69 50 -118C50 -168 94 -205 156 -205C259 -205 362 -114 390 -1L486 381C490 395 490 397 490 404Z" stroke="rgb(0,0,0)" stroke-opacity="1" stroke-width="8" fill="rgb(0,0,0)" fill-opacity="1"></path></g></g></g></g><svg x="595.5" overflow="visible" y="213.14999389648438" height="10" width="10"><polyline points="0.00,8.87 5.00,5.53 10.00,8.87" style="fill:none;fill-opacity:1;stroke-width:1px;stroke:rgb(0,0,0);stroke-opacity:1;"></polyline></svg></g></g></g><g><g><g><g transform="matrix(1,0,0,1,372.066650390625,339.9833129882812)"><path transform="matrix(0.020399999999999998,0,0,-0.020399999999999998,0,0)" d="M732 88C732 94 732 105 719 105C708 105 708 96 707 89C701 18 666 0 641 0C592 0 584 51 570 144L557 224C539 288 490 321 435 340C532 364 610 425 610 503C610 599 496 683 349 683L35 683L35 652L59 652C136 652 138 641 138 605L138 78C138 42 136 31 59 31L35 31L35 0C71 3 142 3 181 3C220 3 291 3 327 0L327 31L303 31C226 31 224 42 224 78L224 331L339 331C355 331 397 331 432 297C470 261 470 230 470 163C470 98 470 58 511 20C552 -16 607 -22 637 -22C715 -22 732 60 732 88ZM507 503C507 434 483 353 335 353L224 353L224 612C224 635 224 647 246 650C256 652 285 652 305 652C395 652 507 648 507 503ZM1151 119C1151 129 1143 131 1138 131C1129 131 1127 125 1125 117C1090 14 1000 14 990 14C940 14 900 44 877 81C847 129 847 195 847 231L1126 231C1148 231 1151 231 1151 252C1151 351 1097 448 972 448C856 448 764 345 764 220C764 86 869 -11 984 -11C1106 -11 1151 100 1151 119ZM1085 252L848 252C854 401 938 426 972 426C1075 426 1085 291 1085 252ZM1701 216C1701 343 1604 442 1492 442C1414 442 1372 398 1352 376L1352 442L1208 431L1208 400C1279 400 1286 394 1286 350L1286 -118C1286 -163 1275 -163 1208 -163L1208 -194L1320 -191L1433 -194L1433 -163C1366 -163 1355 -163 1355 -118L1355 50L1355 59C1360 43 1402 -11 1478 -11C1597 -11 1701 87 1701 216ZM1618 216C1618 95 1548 11 1474 11C1434 11 1396 31 1369 72C1355 93 1355 94 1355 114L1355 337C1384 388 1433 417 1484 417C1557 417 1618 329 1618 216ZM2151 119C2151 129 2143 131 2138 131C2129 131 2127 125 2125 117C2090 14 2000 14 1990 14C1940 14 1900 44 1877 81C1847 129 1847 195 1847 231L2126 231C2148 231 2151 231 2151 252C2151 351 2097 448 1972 448C1856 448 1764 345 1764 220C1764 86 1869 -11 1984 -11C2106 -11 2151 100 2151 119ZM2085 252L1848 252C1854 401 1938 426 1972 426C2075 426 2085 291 2085 252ZM2663 89L2663 145L2638 145L2638 89C2638 31 2613 25 2602 25C2569 25 2565 70 2565 75L2565 275C2565 317 2565 356 2529 393C2490 432 2440 448 2392 448C2310 448 2241 401 2241 335C2241 305 2261 288 2287 288C2315 288 2333 308 2333 334C2333 346 2328 379 2282 380C2309 415 2358 426 2390 426C2439 426 2496 387 2496 298L2496 261C2445 258 2375 255 2312 225C2237 191 2212 139 2212 95C2212 14 2309 -11 2372 -11C2438 -11 2484 29 2503 76C2507 36 2534 -6 2581 -6C2602 -6 2663 8 2663 89ZM2496 140C2496 45 2424 11 2379 11C2330 11 2289 46 2289 96C2289 151 2331 234 2496 240ZM3012 124L3012 181L2987 181L2987 126C2987 52 2957 14 2920 14C2853 14 2853 105 2853 122L2853 400L2996 400L2996 431L2853 431L2853 615L2828 615C2827 533 2797 426 2699 422L2699 400L2784 400L2784 124C2784 1 2877 -11 2913 -11C2984 -11 3012 60 3012 124Z" stroke="rgb(0,0,0)" stroke-opacity="1" stroke-width="8" fill="rgb(0,0,0)" fill-opacity="1"></path></g></g><g><g transform="matrix(1,0,0,1,441.433349609375,339.7500061035156)"><path transform="matrix(0.020399999999999998,0,0,-0.020399999999999998,0,0)" d="M332 -238C332 -235 330 -232 328 -230C224 -152 155 48 155 208L155 292C155 452 224 652 328 730C330 732 332 735 332 738C332 743 327 748 322 748C320 748 318 747 316 746C206 663 101 463 101 292L101 208C101 37 206 -163 316 -246C318 -247 320 -248 322 -248C327 -248 332 -243 332 -238Z" stroke="rgb(0,0,0)" stroke-opacity="1" stroke-width="8" fill="rgb(0,0,0)" fill-opacity="1"></path></g></g><g><g transform="matrix(1,0,0,1,449.36669921875,339.9833129882812)"><path transform="matrix(0.020399999999999998,0,0,-0.020399999999999998,0,0)" d="M582 258L557 258C546 156 532 31 356 31L274 31C227 31 225 38 225 71L225 604C225 638 225 652 320 652L353 652L353 683C317 680 226 680 185 680C146 680 68 680 33 683L33 652L57 652C134 652 136 641 136 605L136 78C136 42 134 31 57 31L33 31L33 0L554 0ZM1096 214C1096 342 996 448 875 448C750 448 653 339 653 214C653 85 757 -11 874 -11C995 -11 1096 87 1096 214ZM1013 222C1013 186 1013 132 991 88C969 43 925 14 875 14C832 14 788 35 761 81C736 125 736 186 736 222C736 261 736 315 760 359C787 405 834 426 874 426C918 426 961 404 987 361C1013 318 1013 260 1013 222ZM1596 214C1596 342 1496 448 1375 448C1250 448 1153 339 1153 214C1153 85 1257 -11 1374 -11C1495 -11 1596 87 1596 214ZM1513 222C1513 186 1513 132 1491 88C1469 43 1425 14 1375 14C1332 14 1288 35 1261 81C1236 125 1236 186 1236 222C1236 261 1236 315 1260 359C1287 405 1334 426 1374 426C1418 426 1461 404 1487 361C1513 318 1513 260 1513 222ZM2146 216C2146 343 2049 442 1937 442C1859 442 1817 398 1797 376L1797 442L1653 431L1653 400C1724 400 1731 394 1731 350L1731 -118C1731 -163 1720 -163 1653 -163L1653 -194L1765 -191L1878 -194L1878 -163C1811 -163 1800 -163 1800 -118L1800 50L1800 59C1805 43 1847 -11 1923 -11C2042 -11 2146 87 2146 216ZM2063 216C2063 95 1993 11 1919 11C1879 11 1841 31 1814 72C1800 93 1800 94 1800 114L1800 337C1829 388 1878 417 1929 417C2002 417 2063 329 2063 216Z" stroke="rgb(0,0,0)" stroke-opacity="1" stroke-width="8" fill="rgb(0,0,0)" fill-opacity="1"></path></g></g><g><g transform="matrix(1,0,0,1,493.86669921875,339.7500061035156)"><path transform="matrix(0.020399999999999998,0,0,-0.020399999999999998,0,0)" d="M288 208L288 292C288 463 183 663 73 746C71 747 69 748 67 748C62 748 57 743 57 738C57 735 59 732 61 730C165 652 234 452 234 292L234 208C234 48 165 -152 61 -230C59 -232 57 -235 57 -238C57 -243 62 -248 67 -248C69 -248 71 -247 73 -246C183 -163 288 37 288 208Z" stroke="rgb(0,0,0)" stroke-opacity="1" stroke-width="8" fill="rgb(0,0,0)" fill-opacity="1"></path></g></g></g></g><g transform="matrix(0.811471998801361,0.5843913031191721,-0.5843913031191721,0.811471998801361,130.63239624627292,-125.94559379086814)"><g><g><g transform="matrix(1,0,0,1,248.75,145.5)"><path transform="matrix(0.017,0,0,-0.017,0,0)" d="M1048 672C1048 676 1044 683 1036 683C1012 683 984 680 959 680C925 680 888 683 855 683C849 683 836 683 836 664C836 653 845 652 851 652C875 651 910 643 910 613C910 602 905 594 897 580L627 109L590 605C589 625 587 651 660 652C677 652 687 652 687 672C687 682 676 683 672 683C632 683 590 680 550 680C527 680 468 683 445 683C439 683 426 683 426 663C426 652 436 652 450 652C494 652 501 646 503 627L509 550L256 109L218 616C218 628 218 651 294 652C304 652 315 652 315 672C315 683 301 683 301 683C261 683 219 680 178 680C143 680 107 683 73 683C68 683 55 683 55 664C55 652 64 652 80 652C130 652 131 643 133 615L178 4C179 -14 180 -22 194 -22C206 -22 209 -16 218 -1L512 509L549 4C551 -17 553 -22 565 -22C578 -22 584 -12 589 -3L917 567C942 611 966 647 1029 652C1038 653 1048 653 1048 672Z" stroke="rgb(0,0,0)" stroke-opacity="1" stroke-width="8" fill="rgb(0,0,0)" fill-opacity="1"></path></g></g><g><g><g><g><g transform="matrix(1,0,0,1,265.316650390625,148.29999389648438)"><path transform="matrix(0.0119,0,0,-0.0119,0,0)" d="M460 320C460 400 455 480 420 554C374 650 292 666 250 666C190 666 117 640 76 547C44 478 39 400 39 320C39 245 43 155 84 79C127 -2 200 -22 249 -22C303 -22 379 -1 423 94C455 163 460 241 460 320ZM377 332C377 257 377 189 366 125C351 30 294 0 249 0C210 0 151 25 133 121C122 181 122 273 122 332C122 396 122 462 130 516C149 635 224 644 249 644C282 644 348 626 367 527C377 471 377 395 377 332Z" stroke="rgb(0,0,0)" stroke-opacity="1" stroke-width="8" fill="rgb(0,0,0)" fill-opacity="1"></path></g></g></g></g></g></g></g><g transform="matrix(0.9131901651548396,0.40753370690591556,-0.40753370690591556,0.9131901651548396,86.71257173581125,-82.66044321319049)"><g><g><g transform="matrix(1,0,0,1,225.61669921875,168.20001220703125)"><path transform="matrix(0.017,0,0,-0.017,0,0)" d="M1048 672C1048 676 1044 683 1036 683C1012 683 984 680 959 680C925 680 888 683 855 683C849 683 836 683 836 664C836 653 845 652 851 652C875 651 910 643 910 613C910 602 905 594 897 580L627 109L590 605C589 625 587 651 660 652C677 652 687 652 687 672C687 682 676 683 672 683C632 683 590 680 550 680C527 680 468 683 445 683C439 683 426 683 426 663C426 652 436 652 450 652C494 652 501 646 503 627L509 550L256 109L218 616C218 628 218 651 294 652C304 652 315 652 315 672C315 683 301 683 301 683C261 683 219 680 178 680C143 680 107 683 73 683C68 683 55 683 55 664C55 652 64 652 80 652C130 652 131 643 133 615L178 4C179 -14 180 -22 194 -22C206 -22 209 -16 218 -1L512 509L549 4C551 -17 553 -22 565 -22C578 -22 584 -12 589 -3L917 567C942 611 966 647 1029 652C1038 653 1048 653 1048 672Z" stroke="rgb(0,0,0)" stroke-opacity="1" stroke-width="8" fill="rgb(0,0,0)" fill-opacity="1"></path></g></g><g><g><g><g><g transform="matrix(1,0,0,1,242.183349609375,171.01666870117188)"><path transform="matrix(0.0119,0,0,-0.0119,0,0)" d="M419 0L419 31L387 31C297 31 294 42 294 79L294 640C294 664 294 666 271 666C209 602 121 602 89 602L89 571C109 571 168 571 220 597L220 79C220 43 217 31 127 31L95 31L95 0C130 3 217 3 257 3C297 3 384 3 419 0Z" stroke="rgb(0,0,0)" stroke-opacity="1" stroke-width="8" fill="rgb(0,0,0)" fill-opacity="1"></path></g></g></g></g></g></g></g><g transform="matrix(0.995692394104561,0.09271815530050014,-0.09271815530050014,0.995692394104561,19.55454501023442,-20.04767699447433)"><g><g><g transform="matrix(1,0,0,1,213.7666015625,206.433349609375)"><path transform="matrix(0.017,0,0,-0.017,0,0)" d="M1048 672C1048 676 1044 683 1036 683C1012 683 984 680 959 680C925 680 888 683 855 683C849 683 836 683 836 664C836 653 845 652 851 652C875 651 910 643 910 613C910 602 905 594 897 580L627 109L590 605C589 625 587 651 660 652C677 652 687 652 687 672C687 682 676 683 672 683C632 683 590 680 550 680C527 680 468 683 445 683C439 683 426 683 426 663C426 652 436 652 450 652C494 652 501 646 503 627L509 550L256 109L218 616C218 628 218 651 294 652C304 652 315 652 315 672C315 683 301 683 301 683C261 683 219 680 178 680C143 680 107 683 73 683C68 683 55 683 55 664C55 652 64 652 80 652C130 652 131 643 133 615L178 4C179 -14 180 -22 194 -22C206 -22 209 -16 218 -1L512 509L549 4C551 -17 553 -22 565 -22C578 -22 584 -12 589 -3L917 567C942 611 966 647 1029 652C1038 653 1048 653 1048 672Z" stroke="rgb(0,0,0)" stroke-opacity="1" stroke-width="8" fill="rgb(0,0,0)" fill-opacity="1"></path></g></g><g><g><g><g><g transform="matrix(1,0,0,1,230.3333740234375,209.23331298828126)"><path transform="matrix(0.0119,0,0,-0.0119,0,0)" d="M449 174L424 174C419 144 412 100 402 85C395 77 329 77 307 77L127 77L233 180C389 318 449 372 449 472C449 586 359 666 237 666C124 666 50 574 50 485C50 429 100 429 103 429C120 429 155 441 155 482C155 508 137 534 102 534C94 534 92 534 89 533C112 598 166 635 224 635C315 635 358 554 358 472C358 392 308 313 253 251L61 37C50 26 50 24 50 0L421 0Z" stroke="rgb(0,0,0)" stroke-opacity="1" stroke-width="8" fill="rgb(0,0,0)" fill-opacity="1"></path></g></g></g></g></g></g></g><g transform="matrix(0.8060315957648535,-0.5918725087624562,0.5918725087624562,0.8060315957648535,-128.36145642131243,188.16963145660864)"><g><g><g transform="matrix(1,0,0,1,210.550048828125,295.95001220703125)"><path transform="matrix(0.017,0,0,-0.017,0,0)" d="M1048 672C1048 676 1044 683 1036 683C1012 683 984 680 959 680C925 680 888 683 855 683C849 683 836 683 836 664C836 653 845 652 851 652C875 651 910 643 910 613C910 602 905 594 897 580L627 109L590 605C589 625 587 651 660 652C677 652 687 652 687 672C687 682 676 683 672 683C632 683 590 680 550 680C527 680 468 683 445 683C439 683 426 683 426 663C426 652 436 652 450 652C494 652 501 646 503 627L509 550L256 109L218 616C218 628 218 651 294 652C304 652 315 652 315 672C315 683 301 683 301 683C261 683 219 680 178 680C143 680 107 683 73 683C68 683 55 683 55 664C55 652 64 652 80 652C130 652 131 643 133 615L178 4C179 -14 180 -22 194 -22C206 -22 209 -16 218 -1L512 509L549 4C551 -17 553 -22 565 -22C578 -22 584 -12 589 -3L917 567C942 611 966 647 1029 652C1038 653 1048 653 1048 672Z" stroke="rgb(0,0,0)" stroke-opacity="1" stroke-width="8" fill="rgb(0,0,0)" fill-opacity="1"></path></g></g><g><g><g><g><g transform="matrix(1,0,0,1,227.11669921875,298.7333129882812)"><path transform="matrix(0.0119,0,0,-0.0119,0,0)" d="M571 143C571 153 562 153 559 153C549 153 549 150 544 135C524 67 491 11 442 11C425 11 418 21 418 44C418 69 427 93 436 115C455 168 497 278 497 335C497 402 454 442 382 442C292 442 243 378 226 355C221 411 180 442 134 442C88 442 69 403 59 385C43 351 29 292 29 288C29 278 41 278 41 278C51 278 52 279 58 301C75 372 95 420 131 420C151 420 162 407 162 374C162 353 159 342 146 290L88 59C85 44 79 21 79 16C79 -2 93 -11 108 -11C120 -11 138 -3 145 17C146 19 158 66 164 91L186 181C192 203 198 225 203 248L216 298C231 329 284 420 379 420C424 420 433 383 433 350C433 288 384 160 368 117C359 94 358 82 358 71C358 24 393 -11 440 -11C534 -11 571 135 571 143Z" stroke="rgb(0,0,0)" stroke-opacity="1" stroke-width="8" fill="rgb(0,0,0)" fill-opacity="1"></path></g></g></g></g></g></g></g><g><g><g><g transform="matrix(1,0,0,1,152.61669921875,113.913349609375)"><path transform="matrix(0.024480000000000002,0,0,-0.024480000000000002,0,0)" d="M552 636C552 682 506 705 465 705C431 705 368 687 338 588C332 567 329 557 305 431L236 431C217 431 206 431 206 412C206 400 215 400 234 400L300 400L225 5C207 -92 190 -183 138 -183C134 -183 109 -183 90 -165C136 -162 145 -126 145 -111C145 -88 127 -76 108 -76C82 -76 53 -98 53 -136C53 -181 97 -205 138 -205C193 -205 233 -146 251 -108C283 -45 306 76 307 83L367 400L453 400C473 400 483 400 483 420C483 431 473 431 456 431L373 431C384 489 383 487 394 545C398 566 412 637 418 649C427 668 444 683 465 683C469 683 495 683 514 665C470 661 460 626 460 611C460 588 478 576 497 576C523 576 552 598 552 636Z" stroke="rgb(0,0,0)" stroke-opacity="1" stroke-width="8" fill="rgb(0,0,0)" fill-opacity="1"></path></g></g><g><g><g><g><g transform="matrix(1,0,0,1,165.3499755859375,118.05268701171875)"><path transform="matrix(0.017136,0,0,-0.017136,0,0)" d="M460 320C460 400 455 480 420 554C374 650 292 666 250 666C190 666 117 640 76 547C44 478 39 400 39 320C39 245 43 155 84 79C127 -2 200 -22 249 -22C303 -22 379 -1 423 94C455 163 460 241 460 320ZM377 332C377 257 377 189 366 125C351 30 294 0 249 0C210 0 151 25 133 121C122 181 122 273 122 332C122 396 122 462 130 516C149 635 224 644 249 644C282 644 348 626 367 527C377 471 377 395 377 332Z" stroke="rgb(0,0,0)" stroke-opacity="1" stroke-width="8" fill="rgb(0,0,0)" fill-opacity="1"></path></g></g></g></g></g></g></g><g><g><g><g transform="matrix(1,0,0,1,151.3499755859375,351.546650390625)"><path transform="matrix(0.024480000000000002,0,0,-0.024480000000000002,0,0)" d="M552 636C552 682 506 705 465 705C431 705 368 687 338 588C332 567 329 557 305 431L236 431C217 431 206 431 206 412C206 400 215 400 234 400L300 400L225 5C207 -92 190 -183 138 -183C134 -183 109 -183 90 -165C136 -162 145 -126 145 -111C145 -88 127 -76 108 -76C82 -76 53 -98 53 -136C53 -181 97 -205 138 -205C193 -205 233 -146 251 -108C283 -45 306 76 307 83L367 400L453 400C473 400 483 400 483 420C483 431 473 431 456 431L373 431C384 489 383 487 394 545C398 566 412 637 418 649C427 668 444 683 465 683C469 683 495 683 514 665C470 661 460 626 460 611C460 588 478 576 497 576C523 576 552 598 552 636Z" stroke="rgb(0,0,0)" stroke-opacity="1" stroke-width="8" fill="rgb(0,0,0)" fill-opacity="1"></path></g></g><g><g><g><g><g transform="matrix(1,0,0,1,164.0833740234375,355.6859877929688)"><path transform="matrix(0.017136,0,0,-0.017136,0,0)" d="M571 143C571 153 562 153 559 153C549 153 549 150 544 135C524 67 491 11 442 11C425 11 418 21 418 44C418 69 427 93 436 115C455 168 497 278 497 335C497 402 454 442 382 442C292 442 243 378 226 355C221 411 180 442 134 442C88 442 69 403 59 385C43 351 29 292 29 288C29 278 41 278 41 278C51 278 52 279 58 301C75 372 95 420 131 420C151 420 162 407 162 374C162 353 159 342 146 290L88 59C85 44 79 21 79 16C79 -2 93 -11 108 -11C120 -11 138 -3 145 17C146 19 158 66 164 91L186 181C192 203 198 225 203 248L216 298C231 329 284 420 379 420C424 420 433 383 433 350C433 288 384 160 368 117C359 94 358 82 358 71C358 24 393 -11 440 -11C534 -11 571 135 571 143Z" stroke="rgb(0,0,0)" stroke-opacity="1" stroke-width="8" fill="rgb(0,0,0)" fill-opacity="1"></path></g></g></g></g></g></g></g><g><g><g><g transform="matrix(1,0,0,1,153.199951171875,219.34666870117186)"><path transform="matrix(0.024480000000000002,0,0,-0.024480000000000002,0,0)" d="M552 636C552 682 506 705 465 705C431 705 368 687 338 588C332 567 329 557 305 431L236 431C217 431 206 431 206 412C206 400 215 400 234 400L300 400L225 5C207 -92 190 -183 138 -183C134 -183 109 -183 90 -165C136 -162 145 -126 145 -111C145 -88 127 -76 108 -76C82 -76 53 -98 53 -136C53 -181 97 -205 138 -205C193 -205 233 -146 251 -108C283 -45 306 76 307 83L367 400L453 400C473 400 483 400 483 420C483 431 473 431 456 431L373 431C384 489 383 487 394 545C398 566 412 637 418 649C427 668 444 683 465 683C469 683 495 683 514 665C470 661 460 626 460 611C460 588 478 576 497 576C523 576 552 598 552 636Z" stroke="rgb(0,0,0)" stroke-opacity="1" stroke-width="8" fill="rgb(0,0,0)" fill-opacity="1"></path></g></g><g><g><g><g><g transform="matrix(1,0,0,1,165.933349609375,223.48600610351562)"><path transform="matrix(0.017136,0,0,-0.017136,0,0)" d="M449 174L424 174C419 144 412 100 402 85C395 77 329 77 307 77L127 77L233 180C389 318 449 372 449 472C449 586 359 666 237 666C124 666 50 574 50 485C50 429 100 429 103 429C120 429 155 441 155 482C155 508 137 534 102 534C94 534 92 534 89 533C112 598 166 635 224 635C315 635 358 554 358 472C358 392 308 313 253 251L61 37C50 26 50 24 50 0L421 0Z" stroke="rgb(0,0,0)" stroke-opacity="1" stroke-width="8" fill="rgb(0,0,0)" fill-opacity="1"></path></g></g></g></g></g></g></g><g><g><g><g transform="matrix(1,0,0,1,152.61669921875,164.96333740234374)"><path transform="matrix(0.024480000000000002,0,0,-0.024480000000000002,0,0)" d="M552 636C552 682 506 705 465 705C431 705 368 687 338 588C332 567 329 557 305 431L236 431C217 431 206 431 206 412C206 400 215 400 234 400L300 400L225 5C207 -92 190 -183 138 -183C134 -183 109 -183 90 -165C136 -162 145 -126 145 -111C145 -88 127 -76 108 -76C82 -76 53 -98 53 -136C53 -181 97 -205 138 -205C193 -205 233 -146 251 -108C283 -45 306 76 307 83L367 400L453 400C473 400 483 400 483 420C483 431 473 431 456 431L373 431C384 489 383 487 394 545C398 566 412 637 418 649C427 668 444 683 465 683C469 683 495 683 514 665C470 661 460 626 460 611C460 588 478 576 497 576C523 576 552 598 552 636Z" stroke="rgb(0,0,0)" stroke-opacity="1" stroke-width="8" fill="rgb(0,0,0)" fill-opacity="1"></path></g></g><g><g><g><g><g transform="matrix(1,0,0,1,165.3499755859375,169.1026748046875)"><path transform="matrix(0.017136,0,0,-0.017136,0,0)" d="M419 0L419 31L387 31C297 31 294 42 294 79L294 640C294 664 294 666 271 666C209 602 121 602 89 602L89 571C109 571 168 571 220 597L220 79C220 43 217 31 127 31L95 31L95 0C130 3 217 3 257 3C297 3 384 3 419 0Z" stroke="rgb(0,0,0)" stroke-opacity="1" stroke-width="8" fill="rgb(0,0,0)" fill-opacity="1"></path></g></g></g></g></g></g></g></svg>
</svg>
