<svg xmlns="http://www.w3.org/2000/svg" xmlns:xlink="http://www.w3.org/1999/xlink" x="0" y="0" width="862" height="448.953125" style="
        width:862px;
        height:448.953125px;
        background: transparent;
        fill: none;
">
        
        
        <svg xmlns="http://www.w3.org/2000/svg" class="role-diagram-draw-area"><g class="shapes-region" style="stroke: black; fill: none;"><g class="composite-shape"><path class="real" d=" M533.93,244.4 Q540.93,244.38 540.91,237.38 L540.72,181.19 Q540.69,171.19 547.69,171.16 Q540.69,171.19 540.65,161.19 M540.66,164.19 L540.47,104.99 Q540.44,97.99 533.44,98.02" style="stroke-width: 2; stroke: rgb(74, 144, 226); stroke-opacity: 1; fill: none; fill-opacity: 1;"/></g><g class="composite-shape"><path class="real" d=" M538,352 Q545,352.04 545.04,345.04 L545.25,301.69 Q545.31,291.69 552.31,291.72 Q545.31,291.69 545.36,281.69 M545.34,284.69 L545.46,261.22 Q545.49,254.22 538.5,254.19" style="stroke-width: 2; stroke: rgb(245, 166, 35); stroke-opacity: 1; fill: none; fill-opacity: 1;"/></g><g/></g><g/><g/><g/></svg>
        <svg xmlns="http://www.w3.org/2000/svg" xmlns:xlink="http://www.w3.org/1999/xlink" width="860" height="446.953125" style="width:860px;height:446.953125px;font-family:LatinModern-Math, LatinModern, Asana-Math, Asana;background:transparent;"><g><g><g><g><g><g><g transform="matrix(1,0,0,1,285.34375,122.175625)"><path transform="matrix(0.02941,0,0,-0.02941,0,0)" d="M722 250C722 261 713 270 702 270L76 270C65 270 56 261 56 250C56 239 65 230 76 230L702 230C713 230 722 239 722 250ZM1500 250C1500 261 1491 270 1480 270L854 270C843 270 834 261 834 250C834 239 843 230 854 230L1480 230C1491 230 1500 239 1500 250ZM2278 250C2278 261 2269 270 2258 270L1632 270C1621 270 1612 261 1612 250C1612 239 1621 230 1632 230L2258 230C2269 230 2278 239 2278 250Z" stroke="rgb(0,104,132)" stroke-opacity="1" stroke-width="8" fill="rgb(0,104,132)" fill-opacity="1"></path></g></g><g><g transform="matrix(1,0,0,1,353.984375,122.175625)"><path transform="matrix(0.02941,0,0,-0.02941,0,0)" d="M1191 376C1191 428 1132 442 1098 442C1040 442 1005 389 993 366C968 432 914 442 885 442C781 442 724 313 724 288C724 278 736 278 736 278C744 278 747 280 749 289C783 395 849 420 883 420C902 420 937 411 937 353C937 322 920 255 883 115C867 53 832 11 788 11C782 11 759 11 738 24C763 29 785 50 785 78C785 105 763 113 748 113C718 113 693 87 693 55C693 9 743 -11 787 -11C853 -11 889 59 892 65C904 28 940 -11 1000 -11C1103 -11 1160 118 1160 143C1160 153 1151 153 1148 153C1139 153 1137 149 1135 142C1102 35 1034 11 1002 11C963 11 947 43 947 77C947 99 953 121 964 165L998 302C1004 328 1027 420 1097 420C1102 420 1126 420 1147 407C1119 402 1099 377 1099 353C1099 337 1110 318 1137 318C1159 318 1191 336 1191 376Z" stroke="rgb(0,104,132)" stroke-opacity="1" stroke-width="8" fill="rgb(0,104,132)" fill-opacity="1"></path></g></g><g><g><g><g><g transform="matrix(1,0,0,1,391.21875,127.36825)"><path transform="matrix(0.020587,0,0,-0.020587,0,0)" d="M460 320C460 400 455 480 420 554C374 650 292 666 250 666C190 666 117 640 76 547C44 478 39 400 39 320C39 245 43 155 84 79C127 -2 200 -22 249 -22C303 -22 379 -1 423 94C455 163 460 241 460 320ZM377 332C377 257 377 189 366 125C351 30 294 0 249 0C210 0 151 25 133 121C122 181 122 273 122 332C122 396 122 462 130 516C149 635 224 644 249 644C282 644 348 626 367 527C377 471 377 395 377 332Z" stroke="rgb(0,104,132)" stroke-opacity="1" stroke-width="8" fill="rgb(0,104,132)" fill-opacity="1"></path></g></g></g></g></g><g><g transform="matrix(1,0,0,1,403.265625,122.175625)"><path transform="matrix(0.02941,0,0,-0.02941,0,0)" d="" stroke="rgb(0,104,132)" stroke-opacity="1" stroke-width="8" fill="rgb(0,104,132)" fill-opacity="1"></path></g></g><g><g transform="matrix(1,0,0,1,418.90625,122.175625)"><path transform="matrix(0.02941,0,0,-0.02941,0,0)" d="M722 250C722 261 713 270 702 270L76 270C65 270 56 261 56 250C56 239 65 230 76 230L702 230C713 230 722 239 722 250ZM1500 250C1500 261 1491 270 1480 270L854 270C843 270 834 261 834 250C834 239 843 230 854 230L1480 230C1491 230 1500 239 1500 250ZM2278 250C2278 261 2269 270 2258 270L1632 270C1621 270 1612 261 1612 250C1612 239 1621 230 1632 230L2258 230C2269 230 2278 239 2278 250Z" stroke="rgb(0,104,132)" stroke-opacity="1" stroke-width="8" fill="rgb(0,104,132)" fill-opacity="1"></path></g></g></g></g><g><g><g><g transform="matrix(1,0,0,1,285.34375,161.175625)"><path transform="matrix(0.02941,0,0,-0.02941,0,0)" d="M722 250C722 261 713 270 702 270L76 270C65 270 56 261 56 250C56 239 65 230 76 230L702 230C713 230 722 239 722 250ZM1500 250C1500 261 1491 270 1480 270L854 270C843 270 834 261 834 250C834 239 843 230 854 230L1480 230C1491 230 1500 239 1500 250ZM2278 250C2278 261 2269 270 2258 270L1632 270C1621 270 1612 261 1612 250C1612 239 1621 230 1632 230L2258 230C2269 230 2278 239 2278 250Z" stroke="rgb(0,104,132)" stroke-opacity="1" stroke-width="8" fill="rgb(0,104,132)" fill-opacity="1"></path></g></g><g><g transform="matrix(1,0,0,1,353.984375,161.175625)"><path transform="matrix(0.02941,0,0,-0.02941,0,0)" d="M1191 376C1191 428 1132 442 1098 442C1040 442 1005 389 993 366C968 432 914 442 885 442C781 442 724 313 724 288C724 278 736 278 736 278C744 278 747 280 749 289C783 395 849 420 883 420C902 420 937 411 937 353C937 322 920 255 883 115C867 53 832 11 788 11C782 11 759 11 738 24C763 29 785 50 785 78C785 105 763 113 748 113C718 113 693 87 693 55C693 9 743 -11 787 -11C853 -11 889 59 892 65C904 28 940 -11 1000 -11C1103 -11 1160 118 1160 143C1160 153 1151 153 1148 153C1139 153 1137 149 1135 142C1102 35 1034 11 1002 11C963 11 947 43 947 77C947 99 953 121 964 165L998 302C1004 328 1027 420 1097 420C1102 420 1126 420 1147 407C1119 402 1099 377 1099 353C1099 337 1110 318 1137 318C1159 318 1191 336 1191 376Z" stroke="rgb(0,104,132)" stroke-opacity="1" stroke-width="8" fill="rgb(0,104,132)" fill-opacity="1"></path></g></g><g><g><g><g><g transform="matrix(1,0,0,1,391.21875,166.36825)"><path transform="matrix(0.020587,0,0,-0.020587,0,0)" d="M419 0L419 31L387 31C297 31 294 42 294 79L294 640C294 664 294 666 271 666C209 602 121 602 89 602L89 571C109 571 168 571 220 597L220 79C220 43 217 31 127 31L95 31L95 0C130 3 217 3 257 3C297 3 384 3 419 0Z" stroke="rgb(0,104,132)" stroke-opacity="1" stroke-width="8" fill="rgb(0,104,132)" fill-opacity="1"></path></g></g></g></g></g><g><g transform="matrix(1,0,0,1,403.265625,161.175625)"><path transform="matrix(0.02941,0,0,-0.02941,0,0)" d="" stroke="rgb(0,104,132)" stroke-opacity="1" stroke-width="8" fill="rgb(0,104,132)" fill-opacity="1"></path></g></g><g><g transform="matrix(1,0,0,1,418.90625,161.175625)"><path transform="matrix(0.02941,0,0,-0.02941,0,0)" d="M722 250C722 261 713 270 702 270L76 270C65 270 56 261 56 250C56 239 65 230 76 230L702 230C713 230 722 239 722 250ZM1500 250C1500 261 1491 270 1480 270L854 270C843 270 834 261 834 250C834 239 843 230 854 230L1480 230C1491 230 1500 239 1500 250ZM2278 250C2278 261 2269 270 2258 270L1632 270C1621 270 1612 261 1612 250C1612 239 1621 230 1632 230L2258 230C2269 230 2278 239 2278 250Z" stroke="rgb(0,104,132)" stroke-opacity="1" stroke-width="8" fill="rgb(0,104,132)" fill-opacity="1"></path></g></g></g></g><g><g><g><g transform="matrix(1,0,0,1,285.34375,200.175625)"><path transform="matrix(0.02941,0,0,-0.02941,0,0)" d="M722 250C722 261 713 270 702 270L76 270C65 270 56 261 56 250C56 239 65 230 76 230L702 230C713 230 722 239 722 250ZM1500 250C1500 261 1491 270 1480 270L854 270C843 270 834 261 834 250C834 239 843 230 854 230L1480 230C1491 230 1500 239 1500 250ZM2278 250C2278 261 2269 270 2258 270L1632 270C1621 270 1612 261 1612 250C1612 239 1621 230 1632 230L2258 230C2269 230 2278 239 2278 250Z" stroke="rgb(0,104,132)" stroke-opacity="1" stroke-width="8" fill="rgb(0,104,132)" fill-opacity="1"></path></g></g><g><g transform="matrix(1,0,0,1,353.984375,200.175625)"><path transform="matrix(0.02941,0,0,-0.02941,0,0)" d="M1191 376C1191 428 1132 442 1098 442C1040 442 1005 389 993 366C968 432 914 442 885 442C781 442 724 313 724 288C724 278 736 278 736 278C744 278 747 280 749 289C783 395 849 420 883 420C902 420 937 411 937 353C937 322 920 255 883 115C867 53 832 11 788 11C782 11 759 11 738 24C763 29 785 50 785 78C785 105 763 113 748 113C718 113 693 87 693 55C693 9 743 -11 787 -11C853 -11 889 59 892 65C904 28 940 -11 1000 -11C1103 -11 1160 118 1160 143C1160 153 1151 153 1148 153C1139 153 1137 149 1135 142C1102 35 1034 11 1002 11C963 11 947 43 947 77C947 99 953 121 964 165L998 302C1004 328 1027 420 1097 420C1102 420 1126 420 1147 407C1119 402 1099 377 1099 353C1099 337 1110 318 1137 318C1159 318 1191 336 1191 376Z" stroke="rgb(0,104,132)" stroke-opacity="1" stroke-width="8" fill="rgb(0,104,132)" fill-opacity="1"></path></g></g><g><g><g><g><g transform="matrix(1,0,0,1,391.21875,205.36825)"><path transform="matrix(0.020587,0,0,-0.020587,0,0)" d="M449 174L424 174C419 144 412 100 402 85C395 77 329 77 307 77L127 77L233 180C389 318 449 372 449 472C449 586 359 666 237 666C124 666 50 574 50 485C50 429 100 429 103 429C120 429 155 441 155 482C155 508 137 534 102 534C94 534 92 534 89 533C112 598 166 635 224 635C315 635 358 554 358 472C358 392 308 313 253 251L61 37C50 26 50 24 50 0L421 0Z" stroke="rgb(0,104,132)" stroke-opacity="1" stroke-width="8" fill="rgb(0,104,132)" fill-opacity="1"></path></g></g></g></g></g><g><g transform="matrix(1,0,0,1,403.265625,200.175625)"><path transform="matrix(0.02941,0,0,-0.02941,0,0)" d="" stroke="rgb(0,104,132)" stroke-opacity="1" stroke-width="8" fill="rgb(0,104,132)" fill-opacity="1"></path></g></g><g><g transform="matrix(1,0,0,1,418.90625,200.175625)"><path transform="matrix(0.02941,0,0,-0.02941,0,0)" d="M722 250C722 261 713 270 702 270L76 270C65 270 56 261 56 250C56 239 65 230 76 230L702 230C713 230 722 239 722 250ZM1500 250C1500 261 1491 270 1480 270L854 270C843 270 834 261 834 250C834 239 843 230 854 230L1480 230C1491 230 1500 239 1500 250ZM2278 250C2278 261 2269 270 2258 270L1632 270C1621 270 1612 261 1612 250C1612 239 1621 230 1632 230L2258 230C2269 230 2278 239 2278 250Z" stroke="rgb(0,104,132)" stroke-opacity="1" stroke-width="8" fill="rgb(0,104,132)" fill-opacity="1"></path></g></g></g></g><g><g><g><g transform="matrix(1,0,0,1,382.359375,239.175625)"><path transform="matrix(0.02941,0,0,-0.02941,0,0)" d="M192 53C192 82 168 106 139 106C110 106 86 82 86 53C86 24 110 0 139 0C168 0 192 24 192 53Z" stroke="rgb(0,104,132)" stroke-opacity="1" stroke-width="8" fill="rgb(0,104,132)" fill-opacity="1"></path></g></g></g></g><g><g><g><g transform="matrix(1,0,0,1,382.359375,275.175625)"><path transform="matrix(0.02941,0,0,-0.02941,0,0)" d="M192 53C192 82 168 106 139 106C110 106 86 82 86 53C86 24 110 0 139 0C168 0 192 24 192 53Z" stroke="rgb(0,104,132)" stroke-opacity="1" stroke-width="8" fill="rgb(0,104,132)" fill-opacity="1"></path></g></g></g></g><g><g><g><g transform="matrix(1,0,0,1,382.359375,311.175625)"><path transform="matrix(0.02941,0,0,-0.02941,0,0)" d="M192 53C192 82 168 106 139 106C110 106 86 82 86 53C86 24 110 0 139 0C168 0 192 24 192 53Z" stroke="rgb(0,104,132)" stroke-opacity="1" stroke-width="8" fill="rgb(0,104,132)" fill-opacity="1"></path></g></g></g></g><g><g><g><g transform="matrix(1,0,0,1,281.453125,347.175625)"><path transform="matrix(0.02941,0,0,-0.02941,0,0)" d="M722 250C722 261 713 270 702 270L76 270C65 270 56 261 56 250C56 239 65 230 76 230L702 230C713 230 722 239 722 250ZM1500 250C1500 261 1491 270 1480 270L854 270C843 270 834 261 834 250C834 239 843 230 854 230L1480 230C1491 230 1500 239 1500 250ZM2278 250C2278 261 2269 270 2258 270L1632 270C1621 270 1612 261 1612 250C1612 239 1621 230 1632 230L2258 230C2269 230 2278 239 2278 250Z" stroke="rgb(0,104,132)" stroke-opacity="1" stroke-width="8" fill="rgb(0,104,132)" fill-opacity="1"></path></g></g><g><g transform="matrix(1,0,0,1,350.09375,347.175625)"><path transform="matrix(0.02941,0,0,-0.02941,0,0)" d="M1191 376C1191 428 1132 442 1098 442C1040 442 1005 389 993 366C968 432 914 442 885 442C781 442 724 313 724 288C724 278 736 278 736 278C744 278 747 280 749 289C783 395 849 420 883 420C902 420 937 411 937 353C937 322 920 255 883 115C867 53 832 11 788 11C782 11 759 11 738 24C763 29 785 50 785 78C785 105 763 113 748 113C718 113 693 87 693 55C693 9 743 -11 787 -11C853 -11 889 59 892 65C904 28 940 -11 1000 -11C1103 -11 1160 118 1160 143C1160 153 1151 153 1148 153C1139 153 1137 149 1135 142C1102 35 1034 11 1002 11C963 11 947 43 947 77C947 99 953 121 964 165L998 302C1004 328 1027 420 1097 420C1102 420 1126 420 1147 407C1119 402 1099 377 1099 353C1099 337 1110 318 1137 318C1159 318 1191 336 1191 376Z" stroke="rgb(0,104,132)" stroke-opacity="1" stroke-width="8" fill="rgb(0,104,132)" fill-opacity="1"></path></g></g><g><g><g><g><g transform="matrix(1,0,0,1,387.328125,352.36825)"><path transform="matrix(0.020587,0,0,-0.020587,0,0)" d="M848 143C848 153 839 153 836 153C826 153 826 150 821 135C806 82 774 11 719 11C702 11 695 21 695 44C695 69 704 93 713 115C732 167 774 278 774 335C774 400 734 442 659 442C584 442 533 398 496 345C495 358 492 392 464 416C439 437 407 442 382 442C292 442 243 378 226 355C221 412 179 442 134 442C88 442 69 403 60 385C42 350 29 291 29 288C29 278 41 278 41 278C51 278 52 279 58 301C75 372 95 420 131 420C147 420 162 412 162 374C162 353 159 342 146 290L88 59C85 44 79 21 79 16C79 -2 93 -11 108 -11C120 -11 138 -3 145 17C146 19 158 66 164 91L186 181C192 203 198 225 203 248L216 298C231 329 284 420 379 420C424 420 433 383 433 350C433 325 426 297 418 267L390 151C380 114 379 108 370 75C366 55 357 21 357 16C357 -2 371 -11 386 -11C417 -11 423 14 431 46L491 287C494 300 547 420 656 420C699 420 710 386 710 350C710 293 668 179 648 126C639 102 635 91 635 71C635 24 670 -11 717 -11C811 -11 848 135 848 143Z" stroke="rgb(0,104,132)" stroke-opacity="1" stroke-width="8" fill="rgb(0,104,132)" fill-opacity="1"></path></g></g></g></g></g><g><g transform="matrix(1,0,0,1,407.15625,347.175625)"><path transform="matrix(0.02941,0,0,-0.02941,0,0)" d="" stroke="rgb(0,104,132)" stroke-opacity="1" stroke-width="8" fill="rgb(0,104,132)" fill-opacity="1"></path></g></g><g><g transform="matrix(1,0,0,1,422.796875,347.175625)"><path transform="matrix(0.02941,0,0,-0.02941,0,0)" d="M722 250C722 261 713 270 702 270L76 270C65 270 56 261 56 250C56 239 65 230 76 230L702 230C713 230 722 239 722 250ZM1500 250C1500 261 1491 270 1480 270L854 270C843 270 834 261 834 250C834 239 843 230 854 230L1480 230C1491 230 1500 239 1500 250ZM2278 250C2278 261 2269 270 2258 270L1632 270C1621 270 1612 261 1612 250C1612 239 1621 230 1632 230L2258 230C2269 230 2278 239 2278 250Z" stroke="rgb(0,104,132)" stroke-opacity="1" stroke-width="8" fill="rgb(0,104,132)" fill-opacity="1"></path></g></g></g></g><svg x="264.03125" overflow="visible" y="91.765625" height="265" width="13.234375"><path d=" M 11.53 3.82 c 0.00 -0.50 -0.38 -0.88 -0.88 -0.88 h -7.53 v 5.00 h 1.76 v -3.24 h 5.76 c 0.50 0.00 0.88 -0.38 0.88 -0.88 z  M 3.09 7.94 v 249.12 h 1.76 v -249.12 z " style="fill:rgb(0,104,132);fill-opacity:1;stroke-width:1px;stroke:none;stroke-opacity:1;"></path><path d=" M 11.53 261.18 c 0.00 0.50 -0.38 0.88 -0.88 0.88 h -7.53 v -5.00 h 1.76 v 3.24 h 5.76 c 0.50 0.00 0.88 0.38 0.88 0.88 z" style="fill:rgb(0,104,132);fill-opacity:1;stroke-width:1px;stroke:none;stroke-opacity:1;"></path></svg><svg x="501.515625" overflow="visible" y="91.765625" height="265" width="13.234375"><path d=" M 1.54 3.82 c 0.00 -0.50 0.38 -0.88 0.88 -0.88 h 7.53 v 5.00 h -1.76 v -3.24 h -5.76 c -0.50 0.00 -0.88 -0.38 -0.88 -0.88 z  M 9.98 7.94 v 249.12 h -1.76 v -249.12 z" style="fill:rgb(0,104,132);fill-opacity:1;stroke-width:1px;stroke:none;stroke-opacity:1;"></path><path d=" M 1.54 261.18 c 0.00 0.50 0.38 0.88 0.88 0.88 h 7.53 v -5.00 h -1.76 v 3.24 h -5.76 c -0.50 0.00 -0.88 0.38 -0.88 0.88 z" style="fill:rgb(0,104,132);fill-opacity:1;stroke-width:1px;stroke:none;stroke-opacity:1;"></path></svg><line stroke-dasharray="1" style="fill:none;stroke-width:[object Object];stroke:rgba(0, 0, 0, 0);" x1="271.390625" y1="91.765625" x2="506.390625" y2="91.765625"></line><line stroke-dasharray="1" style="fill:none;stroke-width:[object Object];stroke:rgba(0, 0, 0, 0);" x1="271.390625" y1="91.765625" x2="271.390625" y2="130.78125"></line><line stroke-dasharray="1" style="fill:none;stroke-width:[object Object];stroke:rgba(0, 0, 0, 0);" x1="506.390625" y1="91.765625" x2="506.390625" y2="130.78125"></line><line stroke-dasharray="1" style="fill:none;stroke-width:[object Object];stroke:rgba(0, 0, 0, 0);" x1="271.390625" y1="130.78125" x2="506.390625" y2="130.78125"></line><line stroke-dasharray="1" style="fill:none;stroke-width:[object Object];stroke:rgba(0, 0, 0, 0);" x1="271.390625" y1="130.765625" x2="506.390625" y2="130.765625"></line><line stroke-dasharray="1" style="fill:none;stroke-width:[object Object];stroke:rgba(0, 0, 0, 0);" x1="271.390625" y1="130.765625" x2="271.390625" y2="169.78125"></line><line stroke-dasharray="1" style="fill:none;stroke-width:[object Object];stroke:rgba(0, 0, 0, 0);" x1="506.390625" y1="130.765625" x2="506.390625" y2="169.78125"></line><line stroke-dasharray="1" style="fill:none;stroke-width:[object Object];stroke:rgba(0, 0, 0, 0);" x1="271.390625" y1="169.78125" x2="506.390625" y2="169.78125"></line><line stroke-dasharray="1" style="fill:none;stroke-width:[object Object];stroke:rgba(0, 0, 0, 0);" x1="271.390625" y1="169.765625" x2="506.390625" y2="169.765625"></line><line stroke-dasharray="1" style="fill:none;stroke-width:[object Object];stroke:rgba(0, 0, 0, 0);" x1="271.390625" y1="169.765625" x2="271.390625" y2="208.78125"></line><line stroke-dasharray="1" style="fill:none;stroke-width:[object Object];stroke:rgba(0, 0, 0, 0);" x1="506.390625" y1="169.765625" x2="506.390625" y2="208.78125"></line><line stroke-dasharray="1" style="fill:none;stroke-width:[object Object];stroke:rgba(0, 0, 0, 0);" x1="271.390625" y1="208.78125" x2="506.390625" y2="208.78125"></line><line stroke-dasharray="1" style="fill:none;stroke-width:[object Object];stroke:rgba(0, 0, 0, 0);" x1="271.390625" y1="208.765625" x2="506.390625" y2="208.765625"></line><line stroke-dasharray="1" style="fill:none;stroke-width:[object Object];stroke:rgba(0, 0, 0, 0);" x1="271.390625" y1="208.765625" x2="271.390625" y2="244.765625"></line><line stroke-dasharray="1" style="fill:none;stroke-width:[object Object];stroke:rgba(0, 0, 0, 0);" x1="506.390625" y1="208.765625" x2="506.390625" y2="244.765625"></line><line stroke-dasharray="1" style="fill:none;stroke-width:[object Object];stroke:rgba(0, 0, 0, 0);" x1="271.390625" y1="244.765625" x2="506.390625" y2="244.765625"></line><line stroke-dasharray="1" style="fill:none;stroke-width:[object Object];stroke:rgba(0, 0, 0, 0);" x1="271.390625" y1="244.765625" x2="506.390625" y2="244.765625"></line><line stroke-dasharray="1" style="fill:none;stroke-width:[object Object];stroke:rgba(0, 0, 0, 0);" x1="271.390625" y1="244.765625" x2="271.390625" y2="280.765625"></line><line stroke-dasharray="1" style="fill:none;stroke-width:[object Object];stroke:rgba(0, 0, 0, 0);" x1="506.390625" y1="244.765625" x2="506.390625" y2="280.765625"></line><line stroke-dasharray="1" style="fill:none;stroke-width:[object Object];stroke:rgba(0, 0, 0, 0);" x1="271.390625" y1="280.765625" x2="506.390625" y2="280.765625"></line><line stroke-dasharray="1" style="fill:none;stroke-width:[object Object];stroke:rgba(0, 0, 0, 0);" x1="271.390625" y1="280.765625" x2="506.390625" y2="280.765625"></line><line stroke-dasharray="1" style="fill:none;stroke-width:[object Object];stroke:rgba(0, 0, 0, 0);" x1="271.390625" y1="280.765625" x2="271.390625" y2="316.765625"></line><line stroke-dasharray="1" style="fill:none;stroke-width:[object Object];stroke:rgba(0, 0, 0, 0);" x1="506.390625" y1="280.765625" x2="506.390625" y2="316.765625"></line><line stroke-dasharray="1" style="fill:none;stroke-width:[object Object];stroke:rgba(0, 0, 0, 0);" x1="271.390625" y1="316.765625" x2="506.390625" y2="316.765625"></line><line stroke-dasharray="1" style="fill:none;stroke-width:[object Object];stroke:rgba(0, 0, 0, 0);" x1="271.390625" y1="316.765625" x2="506.390625" y2="316.765625"></line><line stroke-dasharray="1" style="fill:none;stroke-width:[object Object];stroke:rgba(0, 0, 0, 0);" x1="271.390625" y1="316.765625" x2="271.390625" y2="355.78125"></line><line stroke-dasharray="1" style="fill:none;stroke-width:[object Object];stroke:rgba(0, 0, 0, 0);" x1="506.390625" y1="316.765625" x2="506.390625" y2="355.78125"></line><line stroke-dasharray="1" style="fill:none;stroke-width:[object Object];stroke:rgba(0, 0, 0, 0);" x1="271.390625" y1="355.78125" x2="506.390625" y2="355.78125"></line></g></g></g><g><g><g><g><g><g><g transform="matrix(1,0,0,1,183.359375,122.081875)"><path transform="matrix(0.02941,0,0,-0.02941,0,0)" d="M822 404C822 422 808 431 793 431C783 431 767 425 758 410C756 405 748 374 744 356L724 276L679 96C675 81 632 11 566 11C515 11 504 55 504 92C504 138 521 200 555 288C571 329 575 340 575 360C575 405 543 442 493 442C398 442 361 297 361 288C361 278 373 278 373 278C383 278 384 280 389 296C416 390 456 420 490 420C498 420 515 420 515 388C515 363 505 337 498 318C458 212 440 155 440 108C440 19 503 -11 562 -11C601 -11 635 6 663 34C650 -18 638 -67 598 -120C572 -154 534 -183 488 -183C474 -183 429 -180 412 -141C428 -141 441 -141 455 -129C465 -120 475 -107 475 -88C475 -57 448 -53 438 -53C415 -53 382 -69 382 -118C382 -168 426 -205 488 -205C591 -205 694 -114 722 -1L818 381C822 395 822 397 822 404Z" stroke="rgb(0,104,132)" stroke-opacity="1" stroke-width="8" fill="rgb(0,104,132)" fill-opacity="1"></path></g></g><g><g><g><g><g transform="matrix(1,0,0,1,208.421875,127.2745)"><path transform="matrix(0.020587,0,0,-0.020587,0,0)" d="M460 320C460 400 455 480 420 554C374 650 292 666 250 666C190 666 117 640 76 547C44 478 39 400 39 320C39 245 43 155 84 79C127 -2 200 -22 249 -22C303 -22 379 -1 423 94C455 163 460 241 460 320ZM377 332C377 257 377 189 366 125C351 30 294 0 249 0C210 0 151 25 133 121C122 181 122 273 122 332C122 396 122 462 130 516C149 635 224 644 249 644C282 644 348 626 367 527C377 471 377 395 377 332Z" stroke="rgb(0,104,132)" stroke-opacity="1" stroke-width="8" fill="rgb(0,104,132)" fill-opacity="1"></path></g></g></g></g></g><g><g transform="matrix(1,0,0,1,220.46875,122.081875)"><path transform="matrix(0.02941,0,0,-0.02941,0,0)" d="" stroke="rgb(0,104,132)" stroke-opacity="1" stroke-width="8" fill="rgb(0,104,132)" fill-opacity="1"></path></g></g></g></g><g><g><g><g transform="matrix(1,0,0,1,193.125,161.081875)"><path transform="matrix(0.02941,0,0,-0.02941,0,0)" d="M490 404C490 422 476 431 461 431C451 431 435 425 426 410C424 405 416 374 412 356L392 276L347 96C343 81 300 11 234 11C183 11 172 55 172 92C172 138 189 200 223 288C239 329 243 340 243 360C243 405 211 442 161 442C66 442 29 297 29 288C29 278 41 278 41 278C51 278 52 280 57 296C84 390 124 420 158 420C166 420 183 420 183 388C183 363 173 337 166 318C126 212 108 155 108 108C108 19 171 -11 230 -11C269 -11 303 6 331 34C318 -18 306 -67 266 -120C240 -154 202 -183 156 -183C142 -183 97 -180 80 -141C96 -141 109 -141 123 -129C133 -120 143 -107 143 -88C143 -57 116 -53 106 -53C83 -53 50 -69 50 -118C50 -168 94 -205 156 -205C259 -205 362 -114 390 -1L486 381C490 395 490 397 490 404Z" stroke="rgb(0,104,132)" stroke-opacity="1" stroke-width="8" fill="rgb(0,104,132)" fill-opacity="1"></path></g></g><g><g><g><g><g transform="matrix(1,0,0,1,208.421875,166.2745)"><path transform="matrix(0.020587,0,0,-0.020587,0,0)" d="M419 0L419 31L387 31C297 31 294 42 294 79L294 640C294 664 294 666 271 666C209 602 121 602 89 602L89 571C109 571 168 571 220 597L220 79C220 43 217 31 127 31L95 31L95 0C130 3 217 3 257 3C297 3 384 3 419 0Z" stroke="rgb(0,104,132)" stroke-opacity="1" stroke-width="8" fill="rgb(0,104,132)" fill-opacity="1"></path></g></g></g></g></g></g></g><g><g><g><g transform="matrix(1,0,0,1,193.125,200.081875)"><path transform="matrix(0.02941,0,0,-0.02941,0,0)" d="M490 404C490 422 476 431 461 431C451 431 435 425 426 410C424 405 416 374 412 356L392 276L347 96C343 81 300 11 234 11C183 11 172 55 172 92C172 138 189 200 223 288C239 329 243 340 243 360C243 405 211 442 161 442C66 442 29 297 29 288C29 278 41 278 41 278C51 278 52 280 57 296C84 390 124 420 158 420C166 420 183 420 183 388C183 363 173 337 166 318C126 212 108 155 108 108C108 19 171 -11 230 -11C269 -11 303 6 331 34C318 -18 306 -67 266 -120C240 -154 202 -183 156 -183C142 -183 97 -180 80 -141C96 -141 109 -141 123 -129C133 -120 143 -107 143 -88C143 -57 116 -53 106 -53C83 -53 50 -69 50 -118C50 -168 94 -205 156 -205C259 -205 362 -114 390 -1L486 381C490 395 490 397 490 404Z" stroke="rgb(0,104,132)" stroke-opacity="1" stroke-width="8" fill="rgb(0,104,132)" fill-opacity="1"></path></g></g><g><g><g><g><g transform="matrix(1,0,0,1,208.421875,205.2745)"><path transform="matrix(0.020587,0,0,-0.020587,0,0)" d="M449 174L424 174C419 144 412 100 402 85C395 77 329 77 307 77L127 77L233 180C389 318 449 372 449 472C449 586 359 666 237 666C124 666 50 574 50 485C50 429 100 429 103 429C120 429 155 441 155 482C155 508 137 534 102 534C94 534 92 534 89 533C112 598 166 635 224 635C315 635 358 554 358 472C358 392 308 313 253 251L61 37C50 26 50 24 50 0L421 0Z" stroke="rgb(0,104,132)" stroke-opacity="1" stroke-width="8" fill="rgb(0,104,132)" fill-opacity="1"></path></g></g></g></g></g></g></g><g><g><g><g transform="matrix(1,0,0,1,199.765625,239.081875)"><path transform="matrix(0.02941,0,0,-0.02941,0,0)" d="M192 53C192 82 168 106 139 106C110 106 86 82 86 53C86 24 110 0 139 0C168 0 192 24 192 53Z" stroke="rgb(0,104,132)" stroke-opacity="1" stroke-width="8" fill="rgb(0,104,132)" fill-opacity="1"></path></g></g></g></g><g><g><g><g transform="matrix(1,0,0,1,199.765625,275.081875)"><path transform="matrix(0.02941,0,0,-0.02941,0,0)" d="M192 53C192 82 168 106 139 106C110 106 86 82 86 53C86 24 110 0 139 0C168 0 192 24 192 53Z" stroke="rgb(0,104,132)" stroke-opacity="1" stroke-width="8" fill="rgb(0,104,132)" fill-opacity="1"></path></g></g></g></g><g><g><g><g transform="matrix(1,0,0,1,199.765625,311.081875)"><path transform="matrix(0.02941,0,0,-0.02941,0,0)" d="M192 53C192 82 168 106 139 106C110 106 86 82 86 53C86 24 110 0 139 0C168 0 192 24 192 53Z" stroke="rgb(0,104,132)" stroke-opacity="1" stroke-width="8" fill="rgb(0,104,132)" fill-opacity="1"></path></g></g></g></g><g><g><g><g transform="matrix(1,0,0,1,184.34375,347.081875)"><path transform="matrix(0.02941,0,0,-0.02941,0,0)" d="M490 404C490 422 476 431 461 431C451 431 435 425 426 410C424 405 416 374 412 356L392 276L347 96C343 81 300 11 234 11C183 11 172 55 172 92C172 138 189 200 223 288C239 329 243 340 243 360C243 405 211 442 161 442C66 442 29 297 29 288C29 278 41 278 41 278C51 278 52 280 57 296C84 390 124 420 158 420C166 420 183 420 183 388C183 363 173 337 166 318C126 212 108 155 108 108C108 19 171 -11 230 -11C269 -11 303 6 331 34C318 -18 306 -67 266 -120C240 -154 202 -183 156 -183C142 -183 97 -180 80 -141C96 -141 109 -141 123 -129C133 -120 143 -107 143 -88C143 -57 116 -53 106 -53C83 -53 50 -69 50 -118C50 -168 94 -205 156 -205C259 -205 362 -114 390 -1L486 381C490 395 490 397 490 404Z" stroke="rgb(0,104,132)" stroke-opacity="1" stroke-width="8" fill="rgb(0,104,132)" fill-opacity="1"></path></g></g><g><g><g><g><g transform="matrix(1,0,0,1,199.640625,352.2745)"><path transform="matrix(0.020587,0,0,-0.020587,0,0)" d="M848 143C848 153 839 153 836 153C826 153 826 150 821 135C806 82 774 11 719 11C702 11 695 21 695 44C695 69 704 93 713 115C732 167 774 278 774 335C774 400 734 442 659 442C584 442 533 398 496 345C495 358 492 392 464 416C439 437 407 442 382 442C292 442 243 378 226 355C221 412 179 442 134 442C88 442 69 403 60 385C42 350 29 291 29 288C29 278 41 278 41 278C51 278 52 279 58 301C75 372 95 420 131 420C147 420 162 412 162 374C162 353 159 342 146 290L88 59C85 44 79 21 79 16C79 -2 93 -11 108 -11C120 -11 138 -3 145 17C146 19 158 66 164 91L186 181C192 203 198 225 203 248L216 298C231 329 284 420 379 420C424 420 433 383 433 350C433 325 426 297 418 267L390 151C380 114 379 108 370 75C366 55 357 21 357 16C357 -2 371 -11 386 -11C417 -11 423 14 431 46L491 287C494 300 547 420 656 420C699 420 710 386 710 350C710 293 668 179 648 126C639 102 635 91 635 71C635 24 670 -11 717 -11C811 -11 848 135 848 143Z" stroke="rgb(0,104,132)" stroke-opacity="1" stroke-width="8" fill="rgb(0,104,132)" fill-opacity="1"></path></g></g></g></g></g><g><g transform="matrix(1,0,0,1,219.46875,347.081875)"><path transform="matrix(0.02941,0,0,-0.02941,0,0)" d="" stroke="rgb(0,104,132)" stroke-opacity="1" stroke-width="8" fill="rgb(0,104,132)" fill-opacity="1"></path></g></g></g></g><svg x="165.9375" overflow="visible" y="91.671875" height="265" width="13.234375"><path d=" M 11.53 3.82 c 0.00 -0.50 -0.38 -0.88 -0.88 -0.88 h -7.53 v 5.00 h 1.76 v -3.24 h 5.76 c 0.50 0.00 0.88 -0.38 0.88 -0.88 z  M 3.09 7.94 v 249.12 h 1.76 v -249.12 z " style="fill:rgb(0,104,132);fill-opacity:1;stroke-width:1px;stroke:none;stroke-opacity:1;"></path><path d=" M 11.53 261.18 c 0.00 0.50 -0.38 0.88 -0.88 0.88 h -7.53 v -5.00 h 1.76 v 3.24 h 5.76 c 0.50 0.00 0.88 0.38 0.88 0.88 z" style="fill:rgb(0,104,132);fill-opacity:1;stroke-width:1px;stroke:none;stroke-opacity:1;"></path></svg><svg x="234.421875" overflow="visible" y="91.671875" height="265" width="13.234375"><path d=" M 1.54 3.82 c 0.00 -0.50 0.38 -0.88 0.88 -0.88 h 7.53 v 5.00 h -1.76 v -3.24 h -5.76 c -0.50 0.00 -0.88 -0.38 -0.88 -0.88 z  M 9.98 7.94 v 249.12 h -1.76 v -249.12 z" style="fill:rgb(0,104,132);fill-opacity:1;stroke-width:1px;stroke:none;stroke-opacity:1;"></path><path d=" M 1.54 261.18 c 0.00 0.50 0.38 0.88 0.88 0.88 h 7.53 v -5.00 h -1.76 v 3.24 h -5.76 c -0.50 0.00 -0.88 0.38 -0.88 0.88 z" style="fill:rgb(0,104,132);fill-opacity:1;stroke-width:1px;stroke:none;stroke-opacity:1;"></path></svg><line stroke-dasharray="1" style="fill:none;stroke-width:[object Object];stroke:rgba(0, 0, 0, 0);" x1="173.296875" y1="91.671875" x2="239.296875" y2="91.671875"></line><line stroke-dasharray="1" style="fill:none;stroke-width:[object Object];stroke:rgba(0, 0, 0, 0);" x1="173.296875" y1="91.671875" x2="173.296875" y2="130.6875"></line><line stroke-dasharray="1" style="fill:none;stroke-width:[object Object];stroke:rgba(0, 0, 0, 0);" x1="239.296875" y1="91.671875" x2="239.296875" y2="130.6875"></line><line stroke-dasharray="1" style="fill:none;stroke-width:[object Object];stroke:rgba(0, 0, 0, 0);" x1="173.296875" y1="130.6875" x2="239.296875" y2="130.6875"></line><line stroke-dasharray="1" style="fill:none;stroke-width:[object Object];stroke:rgba(0, 0, 0, 0);" x1="173.296875" y1="130.671875" x2="239.296875" y2="130.671875"></line><line stroke-dasharray="1" style="fill:none;stroke-width:[object Object];stroke:rgba(0, 0, 0, 0);" x1="173.296875" y1="130.671875" x2="173.296875" y2="169.6875"></line><line stroke-dasharray="1" style="fill:none;stroke-width:[object Object];stroke:rgba(0, 0, 0, 0);" x1="239.296875" y1="130.671875" x2="239.296875" y2="169.6875"></line><line stroke-dasharray="1" style="fill:none;stroke-width:[object Object];stroke:rgba(0, 0, 0, 0);" x1="173.296875" y1="169.6875" x2="239.296875" y2="169.6875"></line><line stroke-dasharray="1" style="fill:none;stroke-width:[object Object];stroke:rgba(0, 0, 0, 0);" x1="173.296875" y1="169.671875" x2="239.296875" y2="169.671875"></line><line stroke-dasharray="1" style="fill:none;stroke-width:[object Object];stroke:rgba(0, 0, 0, 0);" x1="173.296875" y1="169.671875" x2="173.296875" y2="208.6875"></line><line stroke-dasharray="1" style="fill:none;stroke-width:[object Object];stroke:rgba(0, 0, 0, 0);" x1="239.296875" y1="169.671875" x2="239.296875" y2="208.6875"></line><line stroke-dasharray="1" style="fill:none;stroke-width:[object Object];stroke:rgba(0, 0, 0, 0);" x1="173.296875" y1="208.6875" x2="239.296875" y2="208.6875"></line><line stroke-dasharray="1" style="fill:none;stroke-width:[object Object];stroke:rgba(0, 0, 0, 0);" x1="173.296875" y1="208.671875" x2="239.296875" y2="208.671875"></line><line stroke-dasharray="1" style="fill:none;stroke-width:[object Object];stroke:rgba(0, 0, 0, 0);" x1="173.296875" y1="208.671875" x2="173.296875" y2="244.671875"></line><line stroke-dasharray="1" style="fill:none;stroke-width:[object Object];stroke:rgba(0, 0, 0, 0);" x1="239.296875" y1="208.671875" x2="239.296875" y2="244.671875"></line><line stroke-dasharray="1" style="fill:none;stroke-width:[object Object];stroke:rgba(0, 0, 0, 0);" x1="173.296875" y1="244.671875" x2="239.296875" y2="244.671875"></line><line stroke-dasharray="1" style="fill:none;stroke-width:[object Object];stroke:rgba(0, 0, 0, 0);" x1="173.296875" y1="244.671875" x2="239.296875" y2="244.671875"></line><line stroke-dasharray="1" style="fill:none;stroke-width:[object Object];stroke:rgba(0, 0, 0, 0);" x1="173.296875" y1="244.671875" x2="173.296875" y2="280.671875"></line><line stroke-dasharray="1" style="fill:none;stroke-width:[object Object];stroke:rgba(0, 0, 0, 0);" x1="239.296875" y1="244.671875" x2="239.296875" y2="280.671875"></line><line stroke-dasharray="1" style="fill:none;stroke-width:[object Object];stroke:rgba(0, 0, 0, 0);" x1="173.296875" y1="280.671875" x2="239.296875" y2="280.671875"></line><line stroke-dasharray="1" style="fill:none;stroke-width:[object Object];stroke:rgba(0, 0, 0, 0);" x1="173.296875" y1="280.671875" x2="239.296875" y2="280.671875"></line><line stroke-dasharray="1" style="fill:none;stroke-width:[object Object];stroke:rgba(0, 0, 0, 0);" x1="173.296875" y1="280.671875" x2="173.296875" y2="316.671875"></line><line stroke-dasharray="1" style="fill:none;stroke-width:[object Object];stroke:rgba(0, 0, 0, 0);" x1="239.296875" y1="280.671875" x2="239.296875" y2="316.671875"></line><line stroke-dasharray="1" style="fill:none;stroke-width:[object Object];stroke:rgba(0, 0, 0, 0);" x1="173.296875" y1="316.671875" x2="239.296875" y2="316.671875"></line><line stroke-dasharray="1" style="fill:none;stroke-width:[object Object];stroke:rgba(0, 0, 0, 0);" x1="173.296875" y1="316.671875" x2="239.296875" y2="316.671875"></line><line stroke-dasharray="1" style="fill:none;stroke-width:[object Object];stroke:rgba(0, 0, 0, 0);" x1="173.296875" y1="316.671875" x2="173.296875" y2="355.6875"></line><line stroke-dasharray="1" style="fill:none;stroke-width:[object Object];stroke:rgba(0, 0, 0, 0);" x1="239.296875" y1="316.671875" x2="239.296875" y2="355.6875"></line><line stroke-dasharray="1" style="fill:none;stroke-width:[object Object];stroke:rgba(0, 0, 0, 0);" x1="173.296875" y1="355.6875" x2="239.296875" y2="355.6875"></line></g></g></g><g><g><g><g transform="matrix(1,0,0,1,565.21875,177.228125)"><path transform="matrix(0.020399999999999998,0,0,-0.020399999999999998,0,0)" d="M457 335C457 615 338 678 253 678C183 678 142 648 107 611C44 543 42 477 42 434C42 306 108 194 204 194C266 194 330 223 373 277C362 116 285 39 206 39C172 39 139 47 103 77L72 24C106 -1 143 -22 205 -22C336 -22 457 117 457 335ZM371 411C371 329 322 255 243 255C196 255 168 278 147 315C125 354 124 391 124 434C124 478 125 519 153 563C173 592 201 620 253 620C351 620 368 484 370 435C371 428 371 418 371 411ZM957 326C957 405 953 498 911 579C870 654 801 678 750 678C691 678 621 651 580 562C547 489 542 406 542 326C542 247 546 174 576 101C616 5 692 -22 749 -22C822 -22 885 19 917 88C947 153 957 219 957 326ZM879 338C879 272 879 209 861 146C835 55 782 39 750 39C698 39 657 77 637 149C621 206 620 260 620 338C620 401 620 461 637 516C643 535 668 617 749 617C827 617 853 541 860 523C879 467 879 400 879 338ZM1693 730C1693 741 1684 750 1673 750C1663 750 1658 743 1652 736C1602 668 1535 641 1462 641C1392 641 1330 666 1275 718C1256 735 1235 750 1203 750C1127 750 1056 666 1056 549C1056 428 1128 347 1203 347C1276 347 1333 436 1333 548C1333 562 1333 609 1312 661C1377 624 1427 619 1463 619C1539 619 1590 650 1596 654L1597 653L1148 -16C1139 -29 1139 -36 1139 -36C1139 -47 1149 -56 1159 -56C1169 -56 1171 -52 1179 -41L1685 712C1691 721 1693 724 1693 730ZM1776 145C1776 260 1717 347 1646 347C1570 347 1499 263 1499 146C1499 25 1571 -56 1646 -56C1719 -56 1776 33 1776 145ZM1308 549C1308 441 1256 369 1204 369C1184 369 1118 382 1118 548C1118 715 1183 728 1204 728C1257 728 1308 654 1308 549ZM1751 146C1751 38 1699 -34 1647 -34C1627 -34 1561 -21 1561 145C1561 312 1626 325 1647 325C1700 325 1751 251 1751 146Z" stroke="rgb(0,104,132)" stroke-opacity="1" stroke-width="24" fill="rgb(0,104,132)" fill-opacity="1"></path></g></g><g><g><g transform="matrix(1,0,0,1,613.453125,177.228125)"><path transform="matrix(0.020399999999999998,0,0,-0.020399999999999998,0,0)" d="M943 250C943 256 939 261 934 263C877 282 833 322 797 367C769 403 748 447 739 494C737 503 729 510 719 510C708 510 699 501 699 490C699 489 700 487 700 486C710 433 733 384 766 342C788 314 814 290 844 270L78 270C67 270 58 261 58 250C58 239 67 230 78 230L844 230C814 210 788 186 766 158C733 116 710 67 700 14C700 13 699 11 699 10C699 -1 708 -10 719 -10C729 -10 737 -3 739 6C748 53 769 97 797 133C833 178 877 218 934 237C939 239 943 244 943 250Z" stroke="rgb(0,104,132)" stroke-opacity="1" stroke-width="24" fill="rgb(0,104,132)" fill-opacity="1"></path></g></g></g><g><g transform="matrix(1,0,0,1,637.921875,177.228125)"><path transform="matrix(0.020399999999999998,0,0,-0.020399999999999998,0,0)" d="M1017 452L998 677L387 677L368 452L393 452C407 613 422 646 573 646C591 646 617 646 627 644C648 640 648 629 648 606L648 79C648 45 648 31 543 31L503 31L503 0C544 3 646 3 692 3C738 3 841 3 882 0L882 31L842 31C737 31 737 45 737 79L737 606C737 626 737 640 755 644C766 646 793 646 812 646C963 646 978 613 992 452ZM1418 381C1418 413 1387 442 1344 442C1271 442 1235 375 1221 332L1221 442L1082 431L1082 400C1152 400 1160 393 1160 344L1160 76C1160 31 1149 31 1082 31L1082 0L1196 3C1236 3 1283 3 1323 0L1323 31L1302 31C1228 31 1226 42 1226 78L1226 232C1226 331 1268 420 1344 420C1351 420 1353 420 1355 419C1352 418 1332 406 1332 380C1332 352 1353 337 1375 337C1393 337 1418 349 1418 381ZM1929 89L1929 145L1904 145L1904 89C1904 31 1879 25 1868 25C1835 25 1831 70 1831 75L1831 275C1831 317 1831 356 1795 393C1756 432 1706 448 1658 448C1576 448 1507 401 1507 335C1507 305 1527 288 1553 288C1581 288 1599 308 1599 334C1599 346 1594 379 1548 380C1575 415 1624 426 1656 426C1705 426 1762 387 1762 298L1762 261C1711 258 1641 255 1578 225C1503 191 1478 139 1478 95C1478 14 1575 -11 1638 -11C1704 -11 1750 29 1769 76C1773 36 1800 -6 1847 -6C1868 -6 1929 8 1929 89ZM1762 140C1762 45 1690 11 1645 11C1596 11 1555 46 1555 96C1555 151 1597 234 1762 240ZM2193 0L2193 31C2127 31 2123 36 2123 75L2123 442L1983 431L1983 400C2048 400 2057 394 2057 345L2057 76C2057 31 2046 31 1979 31L1979 0L2089 3C2124 3 2159 1 2193 0ZM2138 604C2138 631 2115 657 2085 657C2051 657 2031 629 2031 604C2031 577 2054 551 2084 551C2118 551 2138 579 2138 604ZM2759 0L2759 31C2707 31 2682 31 2681 61L2681 252C2681 338 2681 369 2650 405C2636 422 2603 442 2545 442C2472 442 2425 399 2397 337L2397 442L2256 431L2256 400C2326 400 2334 393 2334 344L2334 76C2334 31 2323 31 2256 31L2256 0L2369 3L2481 0L2481 31C2414 31 2403 31 2403 76L2403 260C2403 364 2474 420 2538 420C2601 420 2612 366 2612 309L2612 76C2612 31 2601 31 2534 31L2534 0L2647 3ZM3027 0L3027 31C2961 31 2957 36 2957 75L2957 442L2817 431L2817 400C2882 400 2891 394 2891 345L2891 76C2891 31 2880 31 2813 31L2813 0L2923 3C2958 3 2993 1 3027 0ZM2972 604C2972 631 2949 657 2919 657C2885 657 2865 629 2865 604C2865 577 2888 551 2918 551C2952 551 2972 579 2972 604ZM3593 0L3593 31C3541 31 3516 31 3515 61L3515 252C3515 338 3515 369 3484 405C3470 422 3437 442 3379 442C3306 442 3259 399 3231 337L3231 442L3090 431L3090 400C3160 400 3168 393 3168 344L3168 76C3168 31 3157 31 3090 31L3090 0L3203 3L3315 0L3315 31C3248 31 3237 31 3237 76L3237 260C3237 364 3308 420 3372 420C3435 420 3446 366 3446 309L3446 76C3446 31 3435 31 3368 31L3368 0L3481 3ZM4099 404C4099 421 4087 453 4048 453C4028 453 3984 447 3942 406C3900 439 3858 442 3836 442C3743 442 3674 373 3674 296C3674 252 3696 214 3721 193C3708 178 3690 145 3690 110C3690 79 3703 41 3734 21C3674 4 3642 -39 3642 -79C3642 -151 3741 -206 3863 -206C3981 -206 4085 -155 4085 -77C4085 -42 4071 9 4020 37C3967 65 3909 65 3848 65C3823 65 3780 65 3773 66C3741 70 3720 101 3720 133C3720 137 3720 160 3737 180C3776 152 3817 149 3836 149C3929 149 3998 218 3998 295C3998 332 3982 369 3957 392C3993 426 4029 431 4047 431C4047 431 4054 431 4057 430C4046 426 4041 415 4041 403C4041 386 4054 374 4070 374C4080 374 4099 381 4099 404ZM3923 296C3923 269 3922 237 3907 212C3899 200 3876 172 3836 172C3749 172 3749 272 3749 295C3749 322 3750 354 3765 379C3773 391 3796 419 3836 419C3923 419 3923 319 3923 296ZM4033 -79C4033 -133 3962 -183 3864 -183C3763 -183 3694 -132 3694 -79C3694 -33 3732 4 3776 7L3835 7C3921 7 4033 7 4033 -79Z" stroke="rgb(0,104,132)" stroke-opacity="1" stroke-width="24" fill="rgb(0,104,132)" fill-opacity="1"></path></g></g></g></g><g><g><g><g transform="matrix(1,0,0,1,569.875,297.571875)"><path transform="matrix(0.020399999999999998,0,0,-0.020399999999999998,0,0)" d="M424 0L424 58L299 58L299 678L279 678C220 617 137 614 89 612L89 554C122 555 170 557 220 578L220 58L95 58L95 0ZM957 326C957 405 953 498 911 579C870 654 801 678 750 678C691 678 621 651 580 562C547 489 542 406 542 326C542 247 546 174 576 101C616 5 692 -22 749 -22C822 -22 885 19 917 88C947 153 957 219 957 326ZM879 338C879 272 879 209 861 146C835 55 782 39 750 39C698 39 657 77 637 149C621 206 620 260 620 338C620 401 620 461 637 516C643 535 668 617 749 617C827 617 853 541 860 523C879 467 879 400 879 338ZM1693 730C1693 741 1684 750 1673 750C1663 750 1658 743 1652 736C1602 668 1535 641 1462 641C1392 641 1330 666 1275 718C1256 735 1235 750 1203 750C1127 750 1056 666 1056 549C1056 428 1128 347 1203 347C1276 347 1333 436 1333 548C1333 562 1333 609 1312 661C1377 624 1427 619 1463 619C1539 619 1590 650 1596 654L1597 653L1148 -16C1139 -29 1139 -36 1139 -36C1139 -47 1149 -56 1159 -56C1169 -56 1171 -52 1179 -41L1685 712C1691 721 1693 724 1693 730ZM1776 145C1776 260 1717 347 1646 347C1570 347 1499 263 1499 146C1499 25 1571 -56 1646 -56C1719 -56 1776 33 1776 145ZM1308 549C1308 441 1256 369 1204 369C1184 369 1118 382 1118 548C1118 715 1183 728 1204 728C1257 728 1308 654 1308 549ZM1751 146C1751 38 1699 -34 1647 -34C1627 -34 1561 -21 1561 145C1561 312 1626 325 1647 325C1700 325 1751 251 1751 146Z" stroke="rgb(0,104,132)" stroke-opacity="1" stroke-width="24" fill="rgb(0,104,132)" fill-opacity="1"></path></g></g><g><g><g transform="matrix(1,0,0,1,618.109375,297.571875)"><path transform="matrix(0.020399999999999998,0,0,-0.020399999999999998,0,0)" d="M943 250C943 256 939 261 934 263C877 282 833 322 797 367C769 403 748 447 739 494C737 503 729 510 719 510C708 510 699 501 699 490C699 489 700 487 700 486C710 433 733 384 766 342C788 314 814 290 844 270L78 270C67 270 58 261 58 250C58 239 67 230 78 230L844 230C814 210 788 186 766 158C733 116 710 67 700 14C700 13 699 11 699 10C699 -1 708 -10 719 -10C729 -10 737 -3 739 6C748 53 769 97 797 133C833 178 877 218 934 237C939 239 943 244 943 250Z" stroke="rgb(0,104,132)" stroke-opacity="1" stroke-width="24" fill="rgb(0,104,132)" fill-opacity="1"></path></g></g></g><g><g transform="matrix(1,0,0,1,642.578125,297.571875)"><path transform="matrix(0.020399999999999998,0,0,-0.020399999999999998,0,0)" d="M1017 452L998 677L387 677L368 452L393 452C407 613 422 646 573 646C591 646 617 646 627 644C648 640 648 629 648 606L648 79C648 45 648 31 543 31L503 31L503 0C544 3 646 3 692 3C738 3 841 3 882 0L882 31L842 31C737 31 737 45 737 79L737 606C737 626 737 640 755 644C766 646 793 646 812 646C963 646 978 613 992 452ZM1469 119C1469 129 1461 131 1456 131C1447 131 1445 125 1443 117C1408 14 1318 14 1308 14C1258 14 1218 44 1195 81C1165 129 1165 195 1165 231L1444 231C1466 231 1469 231 1469 252C1469 351 1415 448 1290 448C1174 448 1082 345 1082 220C1082 86 1187 -11 1302 -11C1424 -11 1469 100 1469 119ZM1403 252L1166 252C1172 401 1256 426 1290 426C1393 426 1403 291 1403 252ZM1858 128C1858 181 1828 211 1816 223C1783 255 1744 263 1702 271C1646 282 1579 295 1579 353C1579 388 1605 429 1691 429C1801 429 1806 339 1808 308C1809 299 1820 299 1820 299C1833 299 1833 304 1833 323L1833 424C1833 441 1833 448 1822 448C1817 448 1815 448 1802 436C1799 432 1789 423 1785 420C1747 448 1706 448 1691 448C1569 448 1531 381 1531 325C1531 290 1547 262 1574 240C1606 214 1634 208 1706 194C1728 190 1810 174 1810 102C1810 51 1775 11 1697 11C1613 11 1577 68 1558 153C1555 166 1554 170 1544 170C1531 170 1531 163 1531 145L1531 13C1531 -4 1531 -11 1542 -11C1547 -11 1548 -10 1567 9C1569 11 1569 13 1587 32C1631 -10 1676 -11 1697 -11C1812 -11 1858 56 1858 128ZM2224 124L2224 181L2199 181L2199 126C2199 52 2169 14 2132 14C2065 14 2065 105 2065 122L2065 400L2208 400L2208 431L2065 431L2065 615L2040 615C2039 533 2009 426 1911 422L1911 400L1996 400L1996 124C1996 1 2089 -11 2125 -11C2196 -11 2224 60 2224 124ZM2528 0L2528 31C2462 31 2458 36 2458 75L2458 442L2318 431L2318 400C2383 400 2392 394 2392 345L2392 76C2392 31 2381 31 2314 31L2314 0L2424 3C2459 3 2494 1 2528 0ZM2473 604C2473 631 2450 657 2420 657C2386 657 2366 629 2366 604C2366 577 2389 551 2419 551C2453 551 2473 579 2473 604ZM3094 0L3094 31C3042 31 3017 31 3016 61L3016 252C3016 338 3016 369 2985 405C2971 422 2938 442 2880 442C2807 442 2760 399 2732 337L2732 442L2591 431L2591 400C2661 400 2669 393 2669 344L2669 76C2669 31 2658 31 2591 31L2591 0L2704 3L2816 0L2816 31C2749 31 2738 31 2738 76L2738 260C2738 364 2809 420 2873 420C2936 420 2947 366 2947 309L2947 76C2947 31 2936 31 2869 31L2869 0L2982 3ZM3600 404C3600 421 3588 453 3549 453C3529 453 3485 447 3443 406C3401 439 3359 442 3337 442C3244 442 3175 373 3175 296C3175 252 3197 214 3222 193C3209 178 3191 145 3191 110C3191 79 3204 41 3235 21C3175 4 3143 -39 3143 -79C3143 -151 3242 -206 3364 -206C3482 -206 3586 -155 3586 -77C3586 -42 3572 9 3521 37C3468 65 3410 65 3349 65C3324 65 3281 65 3274 66C3242 70 3221 101 3221 133C3221 137 3221 160 3238 180C3277 152 3318 149 3337 149C3430 149 3499 218 3499 295C3499 332 3483 369 3458 392C3494 426 3530 431 3548 431C3548 431 3555 431 3558 430C3547 426 3542 415 3542 403C3542 386 3555 374 3571 374C3581 374 3600 381 3600 404ZM3424 296C3424 269 3423 237 3408 212C3400 200 3377 172 3337 172C3250 172 3250 272 3250 295C3250 322 3251 354 3266 379C3274 391 3297 419 3337 419C3424 419 3424 319 3424 296ZM3534 -79C3534 -133 3463 -183 3365 -183C3264 -183 3195 -132 3195 -79C3195 -33 3233 4 3277 7L3336 7C3422 7 3534 7 3534 -79Z" stroke="rgb(0,104,132)" stroke-opacity="1" stroke-width="24" fill="rgb(0,104,132)" fill-opacity="1"></path></g></g></g></g></svg>
</svg>
